<!-- Generator: Adobe Illustrator 18.0.0, SVG Export Plug-In  -->
<svg version="1.1"
	 xmlns="http://www.w3.org/2000/svg" xmlns:xlink="http://www.w3.org/1999/xlink" xmlns:a="http://ns.adobe.com/AdobeSVGViewerExtensions/3.0/"
	 x="0px" y="0px" width="438.5px" height="194.2px" viewBox="0 0 438.5 194.2" enable-background="new 0 0 438.5 194.2"
	 xml:space="preserve">
<defs>
</defs>
<g>
	<g>
		<path fill="#FFFFFF" d="M403.1,78.7v-1.6c0.3,0,0.3,0,0.5,0h1.3v1.6H403.1L403.1,78.7z"/>
		<g>
			<path fill="#FFFFFF" d="M427.3,111.8V110c0.5,0,1.3,0.3,1.8,0.3c1.3,0,2.6-0.5,4.2-1c1.6-0.5,3.1-1.6,5.2-2.9v2.3
				c-1.8,1-3.4,1.8-4.9,2.3c-1.8,0.8-3.4,1-5,1C428,112.1,427.8,112.1,427.3,111.8L427.3,111.8z"/>
			<path fill="#FFFFFF" d="M427.3,98.5V97h5.7v-0.5c0-2.3-0.5-4.2-1.6-5.7c-1-1.3-2.1-2.1-3.9-2.1h-0.3v-1.3c0.3,0,0.5,0,0.5,0
				c2.9,0,5.2,1,7,2.9c2.1,2.1,2.9,5,3.1,8.3H427.3z"/>
			<path fill="#FFFFFF" d="M427.3,87.3v1.3c-1.6,0-2.9,0.8-3.9,2.1c-1,1.6-1.6,3.6-1.8,6.2h5.7v1.6h-5.7c0,0.3,0,0.8,0,0.8
				c0,0.3,0,0.5,0,0.5c0,3.4,0.5,5.7,1.8,7.6c1,1.3,2.3,2.1,3.9,2.6v1.8c-1,0-2.3-0.3-3.4-0.5c-1.3-0.8-2.6-1.6-3.7-2.6
				c-1.3-1-2.1-2.6-2.9-4.2c-0.5-1.6-1-3.4-1-5.5c0-3.4,1-6.3,3.4-8.6C421.5,88.4,424.1,87.3,427.3,87.3L427.3,87.3z"/>
			<path fill="#FFFFFF" d="M401.7,119.9v-1.8c0.3,0,0.5,0,0.8,0c2.1,0,3.9-0.5,5.5-1c1.3-0.8,2.1-1.6,2.1-2.9c0-1-0.8-1.8-2.3-2.3
				c-1.3-0.5-3.1-0.8-6-1.3v-3.9c1.3,0.3,2.3,0.3,3.1,0.5c2.9,0.5,4.7,1.3,6,2.3c1.3,0.8,2.1,2.1,2.1,3.7c0,1.8-1.1,3.4-3.1,4.7
				c-1.8,1.3-4.4,2.1-7.6,2.1C402,119.9,402,119.9,401.7,119.9L401.7,119.9z"/>
			<path fill="#FFFFFF" d="M401.7,102.2v-1.6l0,0c1.6,0,2.6-0.5,3.4-1.6c0.8-1,1.3-2.3,1.3-4.2c0-1.8-0.5-3.4-1.3-4.4
				c-0.8-1-1.8-1.6-3.4-1.6l0,0v-1.3c1.3,0,2.6,0,3.9,0.5c1,0.3,2.1,1,2.9,1.6c1-1.6,1.8-2.9,2.6-3.6c0.8-0.8,1.8-1,2.9-1
				c0.3,0,0.3,0,0.3,0c0.3,0,0.3,0,0.5,0l-0.8,2.6c-0.8,0-1.8,0.3-2.3,0.8c-0.8,0.8-1.6,1.6-2.1,2.4c0.5,0.8,0.8,1.6,1.1,2.1
				c0,0.8,0.3,1.6,0.3,2.1c0,2.3-0.8,3.9-2.3,5.2c-1.6,1.3-3.7,2.1-6.5,2.1H401.7L401.7,102.2z"/>
			<path fill="#FFFFFF" d="M401.7,87.6v1.3c-1.3,0.3-2.3,0.8-3.1,1.6c-0.8,1-1.3,2.6-1.3,4.4c0,1.6,0.5,3.1,1.3,4.2
				c0.8,1,1.8,1.6,3.1,1.6v1.6c-0.8,0-1.3-0.3-1.8-0.3c-0.8-0.3-1.3-0.3-2.1-0.5c-0.8,0.8-1.3,1.3-1.6,1.8c-0.3,0.5-0.5,0.8-0.5,1
				c0,1,1.6,1.6,4.7,2.1c0.5,0,0.8,0.3,1.3,0.3v3.9c-1-0.3-2.3-0.3-3.7-0.5c-1.6,0.3-2.6,0.8-3.4,1.3c-0.8,0.5-1.3,1.3-1.3,2.3
				c0,1,1,2.1,2.6,2.9c1.6,1,3.6,1.3,5.7,1.6v1.8c-1.6,0-2.9-0.3-4.2-0.8c-1.6-0.5-2.9-1-3.9-1.8c-1-0.8-1.6-1.3-2.1-2.1
				c-0.5-0.8-0.8-1.3-0.8-1.8c0-0.5,0.3-0.8,0.8-1.6c0.5-0.5,1.6-1.3,3.4-2.3c-1.3-0.3-2.1-0.5-2.6-1c-0.5-0.5-0.8-0.8-0.8-1.3
				c0-0.8,0.5-1.6,1.3-2.6c0.8-1,2.1-2.3,3.6-3.6c-1.3-0.8-2.1-1.6-2.6-2.6c-0.5-1-0.8-2.1-0.8-3.1c0-2.3,0.8-4.2,2.3-5.7
				C397,88.1,399.1,87.6,401.7,87.6L401.7,87.6L401.7,87.6z"/>
		</g>
		<path fill="#FFFFFF" d="M375.5,74.8v3.9h-3.6v-1.6h1.3c0.8,0,1.6,0,1.8-0.5C375.2,76.3,375.5,75.6,375.5,74.8L375.5,74.8z"/>
		<path fill="#FFFFFF" d="M357.3,79.2v-1.8c0.5,0,1,0.3,1.8,0.3c1.3,0,2.6-0.5,4.2-1c1.3-0.5,3.1-1.6,5-2.9v2.3
			c-1.6,1-3.1,1.8-5,2.3c-1.6,0.5-3.1,1-5,1C358,79.5,357.5,79.2,357.3,79.2L357.3,79.2z"/>
		<g>
			<path fill="#FFFFFF" d="M403.1,58.6c0.3-0.3,0.5-0.5,0.8-0.8c1.3-0.8,2.3-1,3.4-1c1.6,0,2.3,0.3,3.1,1c0.8,0.8,1,2.1,1,3.6v12.8
				c0,1.3-0.3,1.8-0.5,2.3c-0.5,0.5-1,0.5-2.1,0.5h-1.3v1.6h12.5v-1.6h-1.3c-1,0-1.6,0-2.1-0.5c-0.3-0.5-0.5-1-0.5-2.3V61.7
				c0-2.3-0.5-4.2-1.8-5.2c-1.3-1.3-2.9-1.8-5.2-1.8c-1.6,0-2.9,0.3-4.2,0.8c-0.5,0.3-1.3,0.8-1.8,1V58.6z"/>
			<path fill="#FFFFFF" d="M403.1,56.5v2.1c-0.8,0.5-1.3,1.3-2.1,2.1v13.6c0,1.3,0.3,1.8,0.5,2.3c0.3,0.3,0.8,0.5,1.6,0.5v1.6h-10.7
				v-1.6h1.6c0.8,0,1.6,0,1.8-0.5c0.3-0.5,0.5-1,0.5-2.3V59.9c0-1.3-0.3-2.1-0.5-2.3c-0.5-0.3-1-0.5-2.3-0.5h-0.3v-1.3h0.8
				c1,0,2.1,0,3.1,0c1-0.3,2.3-0.3,3.4-0.3l0.5,2.9C401.8,57.6,402.3,57.1,403.1,56.5L403.1,56.5z"/>
			<path fill="#FFFFFF" d="M375.5,78.7v-3.9c0,0,0-0.3,0-0.5V59.9c0-0.3,0-0.3,0-0.5v-3.6c0.3,0,0.5,0,1,0c1-0.3,2.1-0.3,3.1-0.3
				l0.8,3.1c1-1.6,2.3-2.3,3.4-3.1c1-0.5,2.1-1,2.9-1c1.6,0,2.6,0.8,3.4,1.8c1.1,1,1.3,2.6,1.3,4.7h-3.9c-0.3-1.3-0.5-2.3-0.8-2.9
				c-0.3-0.5-1-0.8-1.6-0.8c-0.8,0-1.3,0.3-2.1,0.8c-0.8,0.8-1.8,1.6-2.6,2.9v13.3c0,1.3,0,1.8,0.5,2.3c0.3,0.5,0.8,0.5,1.8,0.5h1.3
				v1.6H375.5z"/>
			<path fill="#FFFFFF" d="M375.5,55.8v3.6c0-1-0.3-1.6-0.5-1.8c-0.3-0.3-1-0.5-2.1-0.5h-0.5v-1.3h0.8
				C373.9,55.8,374.7,55.8,375.5,55.8L375.5,55.8z"/>
			<path fill="#FFFFFF" d="M357.3,65.9v-1.6h5.5v-0.5c0-2.3-0.5-4.4-1.3-5.7c-1-1.3-2.3-2.1-3.9-2.1c-0.3,0-0.3,0-0.3,0v-1.3
				c0,0,0.3,0,0.5,0c2.9,0,5.2,0.8,7,2.9c1.8,2.1,2.9,4.7,3.1,8.3H357.3z"/>
			<path fill="#FFFFFF" d="M357.3,54.7V56c-1.8,0-3.1,0.8-3.9,2.1c-1,1.6-1.8,3.6-1.8,6.3h5.7v1.6h-6c0,0.3,0,0.8,0,0.8
				c0,0.3,0,0.5,0,0.5c0,3.4,0.8,5.7,2.1,7.6c1,1.3,2.3,2.1,3.9,2.6v1.8c-1.3,0-2.3-0.3-3.4-0.8c-1.3-0.5-2.6-1.3-3.6-2.3
				c-1.3-1-2.3-2.6-2.9-4.2c-0.8-1.8-1-3.4-1-5.5c0-3.4,1-6.3,3.1-8.6C351.5,55.8,354.1,54.7,357.3,54.7L357.3,54.7z"/>
			<path fill="#FFFFFF" d="M329.6,79.5v-2.1c0,0,0.3,0,0.5,0c1.6,0,2.6-0.5,3.6-1.6c0.8-1,1.3-2.6,1.3-4.4v-12c-1-1-1.8-2.1-2.6-2.6
				c-1-0.5-1.8-0.8-2.9-0.8l0,0v-1.3c0.8,0,1.8,0.3,2.6,0.5c1,0.5,1.8,1,2.9,2.1v-9.4c0-1.3,0-2.1-0.5-2.6c-0.3-0.3-1.3-0.5-2.3-0.5
				h-1.3v-1h1c1.6,0,2.9,0,4.2-0.3c1,0,2.3,0,3.6-0.3v31.3c0,1,0.3,1.8,0.8,2.3c0.3,0.3,1,0.5,2.4,0.5h0.5v1.3
				c-0.3,0-0.5-0.3-0.8-0.3c-0.5,0-1,0-1.6,0c-1,0-2.1,0.3-2.9,0.3c-0.8,0-1.6,0-2.3,0.3l-0.8-2.9c-0.8,1-1.8,2.1-2.9,2.6
				C331.5,78.9,330.4,79.2,329.6,79.5z"/>
			<path fill="#FFFFFF" d="M329.6,54.7V56c-1.8,0-3.1,1-4.2,2.6c-1.1,1.8-1.6,4.4-1.6,7.6c0,3.7,0.5,6.3,1.8,8.3
				c0.8,1.8,2.1,2.9,3.9,2.9v2.1c-0.3,0-0.3,0-0.5,0c-2.9,0-5.5-1.3-7.3-3.6c-2.1-2.3-2.9-5.5-2.9-9.1c0-1.6,0.3-3.1,0.5-4.7
				c0.5-1.3,1.3-2.6,2.1-3.9c1-1,2.1-1.8,3.4-2.6c1.3-0.5,2.6-0.8,3.9-0.8C329.1,54.7,329.4,54.7,329.6,54.7L329.6,54.7z"/>
		</g>
		<g>
			<g>
				<path fill="#FFFFFF" d="M403.1,126.6c0.8-0.3,1.3-0.5,1.8-0.5c1.6,0,2.6,0.5,3.6,1.6c0.8,1.3,1.3,2.9,1.3,4.7h-4.2
					c0-1.3-0.3-2.1-0.8-2.6c-0.3-0.8-0.8-1-1.6-1h-0.3V126.6L403.1,126.6z"/>
				<path fill="#FFFFFF" d="M398.7,145.9c0,1,0.3,1.8,0.5,2.3c0.3,0.3,1,0.5,1.8,0.5h1.6v1.3h-12.5v-1.3h1.3c1.1,0,1.6-0.3,2.1-0.5
					c0.2-0.5,0.2-1.3,0.2-2.3v-14.3c0-1.3,0-2.1-0.5-2.3c-0.3-0.5-1-0.8-2.1-0.8h-0.5v-1h1c1,0,2.1,0,3.1-0.3c1,0,2.1,0,3.1-0.3
					l0.8,3.1c1.3-1.3,2.3-2.3,3.4-2.9c0.5-0.3,0.8-0.5,1-0.5v2.1c-0.5,0.3-1,0.5-1.8,1c-0.8,0.5-1.6,1.6-2.6,2.6V145.9L398.7,145.9z
					"/>
				<path fill="#FFFFFF" d="M375.5,150.9v-2.1c0.5,0.3,1.3,0.3,1.8,0.3c1.3,0,2.6-0.3,4.2-0.8c1.6-0.8,3.1-1.6,5.2-2.9v2.1
					c-1.8,1-3.4,2.1-5,2.6c-1.8,0.5-3.4,0.8-5,0.8C376.3,150.9,376,150.9,375.5,150.9L375.5,150.9z"/>
				<path fill="#FFFFFF" d="M375.5,137.3v-1.6h5.7v-0.5c0-2.3-0.5-4.2-1.6-5.5c-1-1.6-2.4-2.1-3.9-2.1h-0.3v-1.6c0.3,0,0.5,0,0.5,0
					c2.9,0,5.2,1,7,3.1c1.8,2.1,2.9,4.7,3.1,8.1H375.5L375.5,137.3z"/>
				<path fill="#FFFFFF" d="M375.5,126.1v1.6c-1.6,0-2.9,0.8-3.9,2.1c-1,1.6-1.6,3.4-1.8,6h5.7v1.6h-5.7c0,0.5,0,0.8,0,1
					c0,0.3,0,0.3,0,0.5c0,3.1,0.5,5.7,1.8,7.6c1,1.3,2.3,2.1,3.9,2.3v2.1c-1,0-2.4-0.3-3.4-0.8c-1.3-0.5-2.6-1.3-3.7-2.3
					c-1.3-1.3-2.1-2.6-2.9-4.4c-0.5-1.6-1-3.4-1-5.2c0-3.6,1-6.5,3.4-8.6C369.8,127.4,372.4,126.4,375.5,126.1L375.5,126.1z"/>
				<path fill="#FFFFFF" d="M357.3,150.6v-1.8c0.5-0.3,1-0.3,1.6-0.8c0.8-0.3,1.6-1,2.3-1.8v1.8c-0.8,1-1.8,1.6-2.9,2.1
					C357.8,150.4,357.5,150.4,357.3,150.6L357.3,150.6z"/>
				<polygon fill="#FFFFFF" points="357.3,128.7 357.3,126.9 361.2,126.9 361.2,128.7 357.3,128.7 				"/>
				<path fill="#FFFFFF" d="M357.3,126.9v1.8h-2.9v15.6c0,1.6,0.3,2.6,0.5,3.4c0.5,0.5,1,1,1.8,1c0.3,0,0.3,0,0.5,0v1.8
					c-0.8,0.3-1.8,0.3-2.6,0.3c-1.8,0-3.1-0.5-3.9-1.3c-0.8-1-1-2.9-1-5.2v-15.6h-4.2v-1.8h4.2v-6l4.7-1.3v7.3H357.3L357.3,126.9z"
					/>
				<path fill="#FFFFFF" d="M329.6,128.5v-1.8c0.8-0.3,1.8-0.5,2.9-0.5c2.1,0,3.9,0.8,5.2,1.8c1.3,1.3,1.8,3.1,1.8,5.2v12.8
					c0,1,0.3,1.8,0.5,2.3c0.5,0.3,1,0.5,1.8,0.5h1.6v1.3h-12.5v-1.3h1.3c1,0,1.6-0.3,2.1-0.5c0.3-0.5,0.5-1.3,0.5-2.3v-13
					c0-1.6-0.5-2.6-1-3.4c-0.8-0.8-1.6-1-3.1-1C330.4,128.5,329.9,128.5,329.6,128.5L329.6,128.5z"/>
				<path fill="#FFFFFF" d="M329.6,126.6v1.8c-0.8,0.3-1.6,0.5-2.3,1c-1,0.5-2.1,1.6-2.9,2.9v13.5c0,1,0.3,1.8,0.5,2.3
					c0.5,0.3,1,0.5,2.1,0.5h1.3v1.3h-12.5v-1.3h1.6c0.8,0,1.3-0.3,1.8-0.5c0.3-0.5,0.5-1.3,0.5-2.3v-14.3c0-1.3-0.3-2.1-0.5-2.3
					c-0.5-0.5-1-0.8-2.3-0.8h-0.5v-1h1c1,0,2.1,0,3.1-0.3c1,0,2.1,0,3.4-0.3l0.5,3.1c1.3-1.3,2.6-2.3,3.9-2.9
					C328.9,126.9,329.1,126.6,329.6,126.6z"/>
			</g>
		</g>
	</g>
	<g>
		<path fill="#FFFFFF" d="M380.9,98.8c-2.1,0.3-3.7,0.5-5,0.8V98c1.6-0.3,3.1-0.5,5-0.5v-4.7c0-1.6-0.3-2.6-0.8-3.1
			c-0.5-0.8-1.6-1-2.9-1c-0.5,0-0.8,0-1.3,0.3v-1.6c0.8,0,1.6,0,2.4,0c1.6,0,2.9,0.3,3.9,0.5c1.3,0.5,2.1,1.3,2.6,2.1
			c0.3,0.3,0.5,0.8,0.5,1.3c0.3,0.8,0.3,1.6,0.3,2.9v0.5v12.5c0,1.3,0,2.1,0.3,2.3c0.3,0.5,0.5,0.8,1,0.8c0.3,0,0.5,0,0.8-0.3
			c0.3,0,0.5-0.3,0.8-0.5v1.3c-0.5,0.5-1,0.8-1.6,1c-0.5,0-1,0.3-1.8,0.3c-1.3,0-2.3-0.3-2.9-1c-0.8-0.8-1.3-1.6-1.3-2.9
			c-1.3,1.3-2.6,2.4-3.9,2.9c-0.3,0.3-0.8,0.3-1,0.5v-2.3c0.5-0.3,1.3-0.5,2.1-1c0.8-0.5,1.8-1.3,2.9-2.6V98.8z"/>
		<path fill="#FFFFFF" d="M375.9,99.6c-1,0.3-1.8,0.8-2.3,1c-1.8,1-2.6,2.6-2.6,4.2c0,1.3,0.3,2.3,1,3.1c1,0.8,2.1,1.3,3.1,1.3
			c0.3,0,0.5,0,0.8,0v2.3c-1,0.3-1.8,0.5-2.9,0.5c-1.8,0-3.4-0.5-4.7-1.8c-1.3-1-2.1-2.3-2.1-3.9c0-2.6,1.3-4.7,3.9-6.3
			c1.6-0.8,3.4-1.6,5.7-2.1V99.6L375.9,99.6z"/>
		<path fill="#FFFFFF" d="M375.9,87.3v1.6c-0.8,0-1.6,0.3-2.1,0.8c-1,0.8-1.6,1.6-1.6,2.6c0,0,0,0.3,0.3,0.3c0,0.3,0,0.3,0,0.3h-4.7
			c0-1.6,1-2.9,2.9-3.9C372.3,88.1,373.8,87.6,375.9,87.3L375.9,87.3z"/>
		<path fill="#FFFFFF" d="M323.3,119.9v-1.8c0.3,0,0.5,0,0.8,0c2.1,0,3.9-0.5,5.5-1c1.3-0.8,2.1-1.6,2.1-2.9c0-1-0.8-1.8-2.3-2.3
			c-1.3-0.5-3.1-0.8-6-1.3v-3.9c1.3,0.3,2.3,0.3,3.1,0.5c2.9,0.5,4.7,1.3,6,2.3c1.3,0.8,2.1,2.1,2.1,3.7c0,1.8-1,3.4-3.1,4.7
			c-1.8,1.3-4.4,2.1-7.6,2.1C323.8,119.9,323.5,119.9,323.3,119.9L323.3,119.9z"/>
		<path fill="#FFFFFF" d="M323.3,102.2v-1.6l0,0c1.6,0,2.6-0.5,3.4-1.6c0.8-1,1.3-2.3,1.3-4.2c0-1.8-0.5-3.4-1.3-4.4
			c-0.8-1-1.8-1.6-3.4-1.6l0,0v-1.3c1.3,0,2.6,0,3.9,0.5c1,0.3,2.1,1,2.9,1.6c1-1.6,1.8-2.9,2.6-3.6c1-0.8,1.8-1,2.9-1
			c0.3,0,0.3,0,0.3,0c0.3,0,0.3,0,0.5,0l-0.8,2.6c-0.8,0-1.8,0.3-2.3,0.8c-0.8,0.8-1.6,1.6-2.1,2.4c0.5,0.8,0.8,1.6,1,2.1
			c0,0.8,0.3,1.6,0.3,2.1c0,2.3-0.8,3.9-2.3,5.2c-1.6,1.3-3.6,2.1-6.3,2.1C323.5,102.2,323.5,102.2,323.3,102.2L323.3,102.2z"/>
		<path fill="#FFFFFF" d="M355.3,105.6v-13c0-1.3-0.3-2.1-0.5-2.3c-0.5-0.3-1.3-0.5-2.3-0.5v-1.3c1.3,0,2.3,0,3.7,0
			c1.3-0.3,2.6-0.3,3.9-0.3v19c0,1.3,0.3,2.1,0.5,2.3c0.5,0.3,1.3,0.5,2.3,0.5v1.3c-0.3,0-0.5,0-0.8,0c-0.3,0-0.5,0-1,0
			c-0.8,0-1.8,0-2.6,0c-0.8,0-1.6,0-2.6,0.3l-0.5-3.9c-1.6,1.6-2.9,2.6-4.2,3.4c-1.6,0.8-3.1,1-4.7,1c-2.1,0-3.6-0.5-4.7-1.8
			c-1-1-1.6-3.1-1.6-5.7v-12c0-1.3,0-2.1-0.5-2.3c-0.3-0.3-1-0.5-2.3-0.5v-1.3c1.3,0,2.6,0,3.9,0c1.3-0.3,2.6-0.3,3.9-0.3v15.6
			c0,2.3,0.3,3.9,0.8,5c0.3,0.8,1.3,1.3,2.6,1.3c1,0,2.1-0.5,3.1-1.3C353,107.9,354,106.9,355.3,105.6z"/>
		<path fill="#FFFFFF" d="M323.3,87.6v1.3c-1.3,0.3-2.3,0.8-3.1,1.6c-0.8,1-1.3,2.6-1.3,4.4c0,1.6,0.5,3.1,1.3,4.2
			c0.8,1,1.8,1.6,3.1,1.6v1.6c-0.5,0-1.3-0.3-1.8-0.3c-0.8-0.3-1.3-0.3-2.1-0.5c-0.8,0.8-1.3,1.3-1.6,1.8c-0.3,0.5-0.5,0.8-0.5,1
			c0,1,1.6,1.6,4.7,2.1c0.5,0,0.8,0.3,1.3,0.3v3.9c-1-0.3-2.3-0.3-3.6-0.5c-1.6,0.3-2.6,0.8-3.4,1.3c-0.8,0.5-1.3,1.3-1.3,2.3
			c0,1,1,2.1,2.6,2.9c1.6,1,3.7,1.3,5.7,1.6v1.8c-1.6,0-2.9-0.3-4.2-0.8c-1.6-0.5-2.9-1-3.9-1.8c-1-0.8-1.6-1.3-2.1-2.1
			c-0.5-0.8-0.8-1.3-0.8-1.8c0-0.5,0.3-0.8,0.8-1.6c0.5-0.5,1.6-1.3,3.4-2.3c-1.3-0.3-2.1-0.5-2.6-1c-0.5-0.5-0.8-0.8-0.8-1.3
			c0-0.8,0.5-1.6,1.3-2.6c0.8-1,2.1-2.3,3.6-3.6c-1.3-0.8-2.1-1.6-2.6-2.6c-0.5-1-0.8-2.1-0.8-3.1c0-2.3,0.8-4.2,2.3-5.7
			C318.6,88.1,320.7,87.6,323.3,87.6L323.3,87.6L323.3,87.6z"/>
		<path fill="#FFFFFF" d="M302.2,111.3V87.6c1,0.5,1.8,0.8,2.3,1.6c1.3,1.3,1.8,2.9,1.8,5.2v12.8c0,1,0.3,1.6,0.8,2.1
			c0.3,0.5,0.8,0.5,1.8,0.5h1.3v1.6H302.2L302.2,111.3z"/>
		<path fill="#FFFFFF" d="M302.2,87.6v23.7H298v-1.6h1.3c0.8,0,1.6,0,1.8-0.5c0.3-0.5,0.5-1,0.5-2.1v-13c0-1.6-0.3-2.6-1-3.4
			c-0.5-0.8-1.6-1.3-2.9-1.3c-1.3,0-2.3,0.3-3.4,1c-1.3,0.8-2.1,1.8-2.9,2.9v13.8c0,1,0,1.6,0.5,2.1c0.3,0.5,0.8,0.5,1.8,0.5h1.3
			v1.6h-12.3v-1.6h1.3c0.8,0,1.6,0,1.8-0.5c0.3-0.3,0.5-1,0.5-2.1V92.5c0-1-0.3-2.1-0.5-2.3c-0.3-0.3-1-0.5-2.1-0.5h-0.5v-1.3h0.8
			c1,0,2.3,0,3.4,0c1,0,2.1-0.3,3.1-0.3l0.8,2.9c1-1.3,2.3-2.1,3.6-2.9c1.3-0.5,2.9-0.8,4.2-0.8C300.3,87.3,301.4,87.3,302.2,87.6
			L302.2,87.6z"/>
		<path fill="#FFFFFF" d="M267.5,111.6v-2.3c0.5-0.3,1.3-0.5,2.1-1c0.8-0.5,1.8-1.3,2.9-2.6v-6.8c-2.1,0.3-3.7,0.5-5,0.8V98
			c1.6-0.3,3.1-0.5,5-0.5v-4.7c0-1.6-0.3-2.6-0.8-3.1c-0.5-0.8-1.6-1-2.9-1c-0.5,0-0.8,0-1.3,0.3v-1.6c0.8,0,1.3,0,2.3,0
			c1.6,0,2.9,0.3,3.9,0.5c1.3,0.5,2.1,1.3,2.6,2.1c0.3,0.3,0.5,0.8,0.5,1.3c0.3,0.8,0.3,1.6,0.3,2.9v0.5v12.5c0,1.3,0,2.1,0.3,2.3
			c0.3,0.5,0.5,0.8,1,0.8c0.3,0,0.5,0,0.8-0.3c0.3,0,0.5-0.3,0.8-0.5v1.3c-0.5,0.5-1,0.8-1.6,1c-0.5,0-1,0.3-1.8,0.3
			c-1.3,0-2.3-0.3-3.1-1c-0.5-0.8-1-1.6-1-2.9c-1.3,1.3-2.6,2.4-3.9,2.9C268.3,111.3,267.8,111.3,267.5,111.6L267.5,111.6z"/>
		<path fill="#FFFFFF" d="M267.5,87.3v1.6c-0.8,0-1.6,0.3-2.1,0.8c-1,0.8-1.6,1.6-1.6,2.6c0,0,0,0.3,0.3,0.3c0,0.3,0,0.3,0,0.3h-4.7
			c0-1.6,1-2.9,2.9-3.9C263.6,88.1,265.4,87.6,267.5,87.3L267.5,87.3z"/>
		<path fill="#FFFFFF" d="M267.5,98v1.6c-1.1,0.3-1.8,0.8-2.4,1c-1.8,1-2.6,2.6-2.6,4.2c0,1.3,0.3,2.3,1,3.1c1,0.8,1.8,1.3,3.1,1.3
			c0.3,0,0.5,0,0.8,0v2.3c-1.1,0.3-1.8,0.5-2.9,0.5c-1.8,0-3.4-0.5-4.7-1.8c-1.3-1-2.1-2.3-2.1-3.9c0-2.6,1.3-4.7,3.9-6.3
			C263.3,99.3,265.2,98.5,267.5,98L267.5,98z"/>
		<path fill="#FFFFFF" d="M248,109.5c1.3,0,2.3,0,2.9-0.5c0.5-0.5,1-1.3,1.6-2.9l1.6-5.2h1.3l-0.8,10.4h-28.7v-1.6h1.8
			c1,0,2.1-0.3,2.3-0.8c0.5-0.5,0.8-1.3,0.8-2.6v-24c0-1.6-0.3-2.6-0.5-2.9c-0.5-0.5-1.3-0.8-2.6-0.8h-1.8v-1.6h15.4v1.6h-2.1
			c-1.3,0-2.1,0.3-2.6,0.8c-0.3,0.3-0.5,1.3-0.5,2.9v27.1H248z"/>
		<path fill="#FFFFFF" d="M303.6,79.5v-1.6c2.1,0,3.7-1,4.7-2.9c1-1.8,1.8-4.7,1.8-8.1c0-3.4-0.8-6.3-1.8-8.1
			c-1-1.8-2.6-2.9-4.7-2.9v-1.3c3.7,0,6.3,1,8.3,3.4c2.1,2.1,3.1,5.2,3.1,8.9c0,3.6-1,6.8-3.1,8.9C309.8,78.2,307.2,79.5,303.6,79.5
			z"/>
		<path fill="#FFFFFF" d="M303.6,54.7V56l0,0c-1.8,0-3.4,1-4.4,2.9c-1.3,1.8-1.8,4.7-1.8,8.1c0,3.4,0.5,6.3,1.8,8.1
			c1,1.8,2.6,2.9,4.4,2.9l0,0v1.6l0,0c-3.4,0-6-1.3-8.1-3.6c-2.1-2.1-3.1-5.2-3.1-8.9c0-3.7,1-6.8,3.1-8.9
			C297.6,55.8,300.2,54.7,303.6,54.7L303.6,54.7L303.6,54.7z"/>
		<path fill="#FFFFFF" d="M268.9,74.8v-4.7l9.6-25.5h10.7v1.6h-2.1c-1.3,0-2.1,0.3-2.6,0.5c-0.3,0.5-0.5,1.6-0.5,2.9v24
			c0,1.6,0.3,2.6,0.5,2.9c0.5,0.5,1.3,0.8,2.6,0.8h2.1v1.6h-15.4v-1.6h1.8c1.3,0,2.1-0.3,2.6-0.8c0.5-0.5,0.8-1.6,0.8-2.9V47.7
			L268.9,74.8z"/>
		<path fill="#FFFFFF" d="M268.9,70.1v4.7l-1.6,3.9h-2.6l-12.5-31v25.8c0,1.3,0.3,2.3,0.8,2.9c0.3,0.5,1.3,0.8,2.3,0.8h2.3v1.6
			h-12.8v-1.6h2.3c1.3,0,2.1-0.3,2.6-0.8c0.5-0.5,0.5-1.6,0.5-2.9v-24c0-1.3,0-2.3-0.5-2.9c-0.3-0.3-1.3-0.5-2.3-0.5h-2.6v-1.6h11.2
			l11.5,28.7L268.9,70.1L268.9,70.1z"/>
		<path fill="#FFFFFF" d="M268.9,118.3V116c1.3-0.3,2.9-0.5,4.7-0.5c1.3,0,2.9,0.3,5,0.8c2.3,0.3,3.7,0.5,4.7,0.5c0.3,0,0.5,0,0.8,0
			c0.5,0,0.8,0,1.3,0v8.9h-1.6c-0.3-2.9-1.3-4.7-2.9-6.3c-1.8-1.6-3.9-2.1-6.8-2.1C272,117.3,270.5,117.5,268.9,118.3L268.9,118.3z"
			/>
		<path fill="#FFFFFF" d="M303.6,150.9V149c1.3,0,2.3-0.3,3.7-0.8c1.6-0.8,3.1-1.6,5.2-2.9v2.1c-1.6,1-3.4,2.1-5,2.6
			C306.2,150.6,304.9,150.9,303.6,150.9L303.6,150.9z"/>
		<path fill="#FFFFFF" d="M303.6,137.3v-1.6h3.4v-0.5c0-2.3-0.5-4.2-1.6-5.5c-0.5-0.8-1-1.3-1.8-1.8v-1.6c2.1,0.3,3.9,1.3,5.5,2.9
			c1.8,2.1,2.9,4.7,2.9,8.1H303.6L303.6,137.3z"/>
		<path fill="#FFFFFF" d="M303.6,126.4v1.6c-0.5-0.3-1.3-0.3-2.1-0.3c-1.6,0-3.1,0.5-4.2,2.1c-1,1.6-1.6,3.4-1.6,6h7.8v1.6h-8.1
			c0,0.5,0,0.8,0,1c0,0.3,0,0.3,0,0.5c0,3.1,0.5,5.7,2.1,7.6c1.3,1.8,3.1,2.6,5.7,2.6h0.3v1.8c-0.3,0-0.8,0-1,0
			c-1.6,0-3.1-0.3-4.4-0.8c-1.6-0.5-2.9-1.3-3.9-2.3c-1-1.3-2.1-2.6-2.9-4.4c-0.5-1.6-0.8-3.4-0.8-5.2c0-3.6,1-6.5,3.1-8.6
			c2.1-2.3,5-3.4,8.3-3.4C302.5,126.1,303.1,126.1,303.6,126.4L303.6,126.4z"/>
		<path fill="#FFFFFF" d="M268.9,150.4v-2.6c1.6,1,3.4,1.3,5.5,1.3c2.6,0,4.7-0.8,6.5-2.1c1.6-1.6,2.9-3.7,3.4-6.5h1.6l-0.3,9.1
			c0,0-0.3,0-0.5,0c-0.5-0.3-1-0.3-1.3-0.3c-1,0-2.6,0.3-4.9,0.8c-2.1,0.5-3.9,0.8-5.2,0.8C271.8,150.9,270.2,150.6,268.9,150.4
			L268.9,150.4z"/>
		<path fill="#FFFFFF" d="M268.9,116v2.3c-1.3,0.8-2.6,1.6-3.4,2.9c-2.1,2.9-3.1,6.5-3.1,11.5c0,5.2,1,9.4,3.1,12.2
			c0.8,1.3,2.1,2.3,3.4,2.9v2.6c-3.1-0.8-5.5-2.1-7.6-4.2c-2.9-3.1-4.4-7.6-4.4-13c0-5.5,1.6-9.6,4.4-13
			C263.4,118,266.1,116.7,268.9,116L268.9,116z"/>
	</g>
	<path fill="#FFFFFF" d="M88,194.2l-3.1-0.6C35.7,184.4,0,143.8,0,97.1C0,50.2,35.8,9.6,85.2,0.5L87.9,0l0.5,2.7
		c1.7,10.1,10.3,17.4,20.6,17.4c9.7,0,18.3-6.9,20.4-16.4l0.6-2.7l2.7,0.6c46.8,11.2,79.5,50.4,79.5,95.4c0,44.7-32.5,83.9-79,95.3
		l-3,0.7l-0.3-3.1c-1-10.7-10-18.8-20.8-18.8c-11.2,0-20.3,8.8-20.8,20L88,194.2z M83.7,6.3C38.2,15.9,5.4,53.7,5.4,97.1
		c0,43.2,32.5,80.9,77.6,90.6c2-12.6,12.9-22,25.9-22c12.5,0,23.1,8.7,25.7,20.6c42.6-11.6,72.1-47.9,72.1-89.3
		c0-41.6-29.8-78.1-72.8-89.5c-3.5,10.5-13.6,17.9-24.9,17.9C97,25.6,86.8,17.6,83.7,6.3z"/>
	<g>
		<path fill="#FFFFFF" d="M86.8,148c0,3.5,0,4.2,3.3,4.2v0.6H78.3v-0.6c3.7,0,3.7-0.7,3.7-4.2v-10.7c0-1.8,0-3-1.6-3
			c-0.8,0-1.3,0.2-2.1,0.5l-0.3-0.6l8.2-3.7h0.6V148z"/>
		<path fill="#FFFFFF" d="M93.7,152.8c5-1.1,8.3-3.8,9.3-8.9c-0.9,0.7-2.2,1-3.3,1c-4,0-5.9-3.2-5.9-6.8c0-4.1,2.7-7.6,7.1-7.6
			c5,0,7.4,4.6,7.4,8.9c0,8-6.3,13.8-14.6,13.8V152.8z M103.3,139.5c0-1.9-0.3-7.8-3-7.8c-1.9,0-1.9,3.2-1.9,4.4c0,5,1,7.1,3,7.1
			c0.6,0,1.1-0.3,1.7-0.5C103.3,141.7,103.3,140.9,103.3,139.5z"/>
		<path fill="#FFFFFF" d="M121.5,135.3h-4.2c-2.3,0-5.2,0.1-6.1,2.5h-0.6l1.6-6.8h13.3l-7.5,22.2h-2.6L121.5,135.3z"/>
		<path fill="#FFFFFF" d="M127.5,141.9c0-7.6,3.5-11.3,7.2-11.3c3.7,0,7.2,3.7,7.2,11.3c0,7.6-3.5,11.4-7.2,11.4
			C131.1,153.2,127.5,149.5,127.5,141.9z M137,141.9c0-8.2,0-10.2-2.2-10.2c-2.2,0-2.2,2-2.2,10.2c0,8.2,0,10.2,2.2,10.2
			C137,152.1,137,150.1,137,141.9z"/>
	</g>
	<path fill="#FFFFFF" d="M28,66.7h16.1L53.7,86l10.7-18.3h8.5c0,0,7,0.8,7,6.5V117H64.7V99.7L54.2,117l-9.8-17.4L44.2,117H28.3
		L28,66.7z"/>
	<g id="XMLID_1_">
		<g>
			<g>
				<path fill="#FFFFFF" d="M186.4,102v15.7h-35.9h-15.6V102V82.9v-8.8c0-8.6,10.5-8.1,10.5-8.1h41.1v16.9h-15.7
					c-1.9-3.5-5.8-5.9-10.3-5.9c-6.4,0-11.6,4.9-11.6,11c0,2.5,0.9,4.7,2.3,6.6v7.4H186.4z"/>
			</g>
		</g>
	</g>
	<g>
		<path fill="#FFFFFF" d="M380.9,98.8c-2.1,0.3-3.7,0.5-5,0.8V98c1.6-0.3,3.1-0.5,5-0.5v-4.7c0-1.6-0.3-2.6-0.8-3.1
			c-0.5-0.8-1.6-1-2.9-1c-0.5,0-0.8,0-1.3,0.3v-1.6c0.8,0,1.6,0,2.4,0c1.6,0,2.9,0.3,3.9,0.5c1.3,0.5,2.1,1.3,2.6,2.1
			c0.3,0.3,0.5,0.8,0.5,1.3c0.3,0.8,0.3,1.6,0.3,2.9v0.5v12.5c0,1.3,0,2.1,0.3,2.3c0.3,0.5,0.5,0.8,1,0.8c0.3,0,0.5,0,0.8-0.3
			c0.3,0,0.5-0.3,0.8-0.5v1.3c-0.5,0.5-1,0.8-1.6,1c-0.5,0-1,0.3-1.8,0.3c-1.3,0-2.3-0.3-2.9-1c-0.8-0.8-1.3-1.6-1.3-2.9
			c-1.3,1.3-2.6,2.4-3.9,2.9c-0.3,0.3-0.8,0.3-1,0.5v-2.3c0.5-0.3,1.3-0.5,2.1-1c0.8-0.5,1.8-1.3,2.9-2.6V98.8z"/>
		<path fill="#FFFFFF" d="M375.9,99.6c-1,0.3-1.8,0.8-2.3,1c-1.8,1-2.6,2.6-2.6,4.2c0,1.3,0.3,2.3,1,3.1c1,0.8,2.1,1.3,3.1,1.3
			c0.3,0,0.5,0,0.8,0v2.3c-1,0.3-1.8,0.5-2.9,0.5c-1.8,0-3.4-0.5-4.7-1.8c-1.3-1-2.1-2.3-2.1-3.9c0-2.6,1.3-4.7,3.9-6.3
			c1.6-0.8,3.4-1.6,5.7-2.1V99.6L375.9,99.6z"/>
		<path fill="#FFFFFF" d="M375.9,87.3v1.6c-0.8,0-1.6,0.3-2.1,0.8c-1,0.8-1.6,1.6-1.6,2.6c0,0,0,0.3,0.3,0.3c0,0.3,0,0.3,0,0.3h-4.7
			c0-1.6,1-2.9,2.9-3.9C372.3,88.1,373.8,87.6,375.9,87.3L375.9,87.3z"/>
		<path fill="#FFFFFF" d="M323.3,119.9v-1.8c0.3,0,0.5,0,0.8,0c2.1,0,3.9-0.5,5.5-1c1.3-0.8,2.1-1.6,2.1-2.9c0-1-0.8-1.8-2.3-2.3
			c-1.3-0.5-3.1-0.8-6-1.3v-3.9c1.3,0.3,2.3,0.3,3.1,0.5c2.9,0.5,4.7,1.3,6,2.3c1.3,0.8,2.1,2.1,2.1,3.7c0,1.8-1,3.4-3.1,4.7
			c-1.8,1.3-4.4,2.1-7.6,2.1C323.8,119.9,323.5,119.9,323.3,119.9L323.3,119.9z"/>
		<path fill="#FFFFFF" d="M323.3,102.2v-1.6l0,0c1.6,0,2.6-0.5,3.4-1.6c0.8-1,1.3-2.3,1.3-4.2c0-1.8-0.5-3.4-1.3-4.4
			c-0.8-1-1.8-1.6-3.4-1.6l0,0v-1.3c1.3,0,2.6,0,3.9,0.5c1,0.3,2.1,1,2.9,1.6c1-1.6,1.8-2.9,2.6-3.6c1-0.8,1.8-1,2.9-1
			c0.3,0,0.3,0,0.3,0c0.3,0,0.3,0,0.5,0l-0.8,2.6c-0.8,0-1.8,0.3-2.3,0.8c-0.8,0.8-1.6,1.6-2.1,2.4c0.5,0.8,0.8,1.6,1,2.1
			c0,0.8,0.3,1.6,0.3,2.1c0,2.3-0.8,3.9-2.3,5.2c-1.6,1.3-3.6,2.1-6.3,2.1C323.5,102.2,323.5,102.2,323.3,102.2L323.3,102.2z"/>
		<path fill="#FFFFFF" d="M355.3,105.6v-13c0-1.3-0.3-2.1-0.5-2.3c-0.5-0.3-1.3-0.5-2.3-0.5v-1.3c1.3,0,2.3,0,3.7,0
			c1.3-0.3,2.6-0.3,3.9-0.3v19c0,1.3,0.3,2.1,0.5,2.3c0.5,0.3,1.3,0.5,2.3,0.5v1.3c-0.3,0-0.5,0-0.8,0c-0.3,0-0.5,0-1,0
			c-0.8,0-1.8,0-2.6,0c-0.8,0-1.6,0-2.6,0.3l-0.5-3.9c-1.6,1.6-2.9,2.6-4.2,3.4c-1.6,0.8-3.1,1-4.7,1c-2.1,0-3.6-0.5-4.7-1.8
			c-1-1-1.6-3.1-1.6-5.7v-12c0-1.3,0-2.1-0.5-2.3c-0.3-0.3-1-0.5-2.3-0.5v-1.3c1.3,0,2.6,0,3.9,0c1.3-0.3,2.6-0.3,3.9-0.3v15.6
			c0,2.3,0.3,3.9,0.8,5c0.3,0.8,1.3,1.3,2.6,1.3c1,0,2.1-0.5,3.1-1.3C353,107.9,354,106.9,355.3,105.6z"/>
		<path fill="#FFFFFF" d="M323.3,87.6v1.3c-1.3,0.3-2.3,0.8-3.1,1.6c-0.8,1-1.3,2.6-1.3,4.4c0,1.6,0.5,3.1,1.3,4.2
			c0.8,1,1.8,1.6,3.1,1.6v1.6c-0.5,0-1.3-0.3-1.8-0.3c-0.8-0.3-1.3-0.3-2.1-0.5c-0.8,0.8-1.3,1.3-1.6,1.8c-0.3,0.5-0.5,0.8-0.5,1
			c0,1,1.6,1.6,4.7,2.1c0.5,0,0.8,0.3,1.3,0.3v3.9c-1-0.3-2.3-0.3-3.6-0.5c-1.6,0.3-2.6,0.8-3.4,1.3c-0.8,0.5-1.3,1.3-1.3,2.3
			c0,1,1,2.1,2.6,2.9c1.6,1,3.7,1.3,5.7,1.6v1.8c-1.6,0-2.9-0.3-4.2-0.8c-1.6-0.5-2.9-1-3.9-1.8c-1-0.8-1.6-1.3-2.1-2.1
			c-0.5-0.8-0.8-1.3-0.8-1.8c0-0.5,0.3-0.8,0.8-1.6c0.5-0.5,1.6-1.3,3.4-2.3c-1.3-0.3-2.1-0.5-2.6-1c-0.5-0.5-0.8-0.8-0.8-1.3
			c0-0.8,0.5-1.6,1.3-2.6c0.8-1,2.1-2.3,3.6-3.6c-1.3-0.8-2.1-1.6-2.6-2.6c-0.5-1-0.8-2.1-0.8-3.1c0-2.3,0.8-4.2,2.3-5.7
			C318.6,88.1,320.7,87.6,323.3,87.6L323.3,87.6L323.3,87.6z"/>
		<path fill="#FFFFFF" d="M302.2,111.3V87.6c1,0.5,1.8,0.8,2.3,1.6c1.3,1.3,1.8,2.9,1.8,5.2v12.8c0,1,0.3,1.6,0.8,2.1
			c0.3,0.5,0.8,0.5,1.8,0.5h1.3v1.6H302.2L302.2,111.3z"/>
		<path fill="#FFFFFF" d="M302.2,87.6v23.7H298v-1.6h1.3c0.8,0,1.6,0,1.8-0.5c0.3-0.5,0.5-1,0.5-2.1v-13c0-1.6-0.3-2.6-1-3.4
			c-0.5-0.8-1.6-1.3-2.9-1.3c-1.3,0-2.3,0.3-3.4,1c-1.3,0.8-2.1,1.8-2.9,2.9v13.8c0,1,0,1.6,0.5,2.1c0.3,0.5,0.8,0.5,1.8,0.5h1.3
			v1.6h-12.3v-1.6h1.3c0.8,0,1.6,0,1.8-0.5c0.3-0.3,0.5-1,0.5-2.1V92.5c0-1-0.3-2.1-0.5-2.3c-0.3-0.3-1-0.5-2.1-0.5h-0.5v-1.3h0.8
			c1,0,2.3,0,3.4,0c1,0,2.1-0.3,3.1-0.3l0.8,2.9c1-1.3,2.3-2.1,3.6-2.9c1.3-0.5,2.9-0.8,4.2-0.8C300.3,87.3,301.4,87.3,302.2,87.6
			L302.2,87.6z"/>
		<path fill="#FFFFFF" d="M267.5,111.6v-2.3c0.5-0.3,1.3-0.5,2.1-1c0.8-0.5,1.8-1.3,2.9-2.6v-6.8c-2.1,0.3-3.7,0.5-5,0.8V98
			c1.6-0.3,3.1-0.5,5-0.5v-4.7c0-1.6-0.3-2.6-0.8-3.1c-0.5-0.8-1.6-1-2.9-1c-0.5,0-0.8,0-1.3,0.3v-1.6c0.8,0,1.3,0,2.3,0
			c1.6,0,2.9,0.3,3.9,0.5c1.3,0.5,2.1,1.3,2.6,2.1c0.3,0.3,0.5,0.8,0.5,1.3c0.3,0.8,0.3,1.6,0.3,2.9v0.5v12.5c0,1.3,0,2.1,0.3,2.3
			c0.3,0.5,0.5,0.8,1,0.8c0.3,0,0.5,0,0.8-0.3c0.3,0,0.5-0.3,0.8-0.5v1.3c-0.5,0.5-1,0.8-1.6,1c-0.5,0-1,0.3-1.8,0.3
			c-1.3,0-2.3-0.3-3.1-1c-0.5-0.8-1-1.6-1-2.9c-1.3,1.3-2.6,2.4-3.9,2.9C268.3,111.3,267.8,111.3,267.5,111.6L267.5,111.6z"/>
		<path fill="#FFFFFF" d="M267.5,87.3v1.6c-0.8,0-1.6,0.3-2.1,0.8c-1,0.8-1.6,1.6-1.6,2.6c0,0,0,0.3,0.3,0.3c0,0.3,0,0.3,0,0.3h-4.7
			c0-1.6,1-2.9,2.9-3.9C263.6,88.1,265.4,87.6,267.5,87.3L267.5,87.3z"/>
		<path fill="#FFFFFF" d="M267.5,98v1.6c-1.1,0.3-1.8,0.8-2.4,1c-1.8,1-2.6,2.6-2.6,4.2c0,1.3,0.3,2.3,1,3.1c1,0.8,1.8,1.3,3.1,1.3
			c0.3,0,0.5,0,0.8,0v2.3c-1.1,0.3-1.8,0.5-2.9,0.5c-1.8,0-3.4-0.5-4.7-1.8c-1.3-1-2.1-2.3-2.1-3.9c0-2.6,1.3-4.7,3.9-6.3
			C263.3,99.3,265.2,98.5,267.5,98L267.5,98z"/>
		<path fill="#FFFFFF" d="M248,109.5c1.3,0,2.3,0,2.9-0.5c0.5-0.5,1-1.3,1.6-2.9l1.6-5.2h1.3l-0.8,10.4h-28.7v-1.6h1.8
			c1,0,2.1-0.3,2.3-0.8c0.5-0.5,0.8-1.3,0.8-2.6v-24c0-1.6-0.3-2.6-0.5-2.9c-0.5-0.5-1.3-0.8-2.6-0.8h-1.8v-1.6h15.4v1.6h-2.1
			c-1.3,0-2.1,0.3-2.6,0.8c-0.3,0.3-0.5,1.3-0.5,2.9v27.1H248z"/>
		<path fill="#FFFFFF" d="M303.6,79.5v-1.6c2.1,0,3.7-1,4.7-2.9c1-1.8,1.8-4.7,1.8-8.1c0-3.4-0.8-6.3-1.8-8.1
			c-1-1.8-2.6-2.9-4.7-2.9v-1.3c3.7,0,6.3,1,8.3,3.4c2.1,2.1,3.1,5.2,3.1,8.9c0,3.6-1,6.8-3.1,8.9C309.8,78.2,307.2,79.5,303.6,79.5
			z"/>
		<path fill="#FFFFFF" d="M303.6,54.7V56l0,0c-1.8,0-3.4,1-4.4,2.9c-1.3,1.8-1.8,4.7-1.8,8.1c0,3.4,0.5,6.3,1.8,8.1
			c1,1.8,2.6,2.9,4.4,2.9l0,0v1.6l0,0c-3.4,0-6-1.3-8.1-3.6c-2.1-2.1-3.1-5.2-3.1-8.9c0-3.7,1-6.8,3.1-8.9
			C297.6,55.8,300.2,54.7,303.6,54.7L303.6,54.7L303.6,54.7z"/>
		<path fill="#FFFFFF" d="M268.9,74.8v-4.7l9.6-25.5h10.7v1.6h-2.1c-1.3,0-2.1,0.3-2.6,0.5c-0.3,0.5-0.5,1.6-0.5,2.9v24
			c0,1.6,0.3,2.6,0.5,2.9c0.5,0.5,1.3,0.8,2.6,0.8h2.1v1.6h-15.4v-1.6h1.8c1.3,0,2.1-0.3,2.6-0.8c0.5-0.5,0.8-1.6,0.8-2.9V47.7
			L268.9,74.8z"/>
		<path fill="#FFFFFF" d="M268.9,70.1v4.7l-1.6,3.9h-2.6l-12.5-31v25.8c0,1.3,0.3,2.3,0.8,2.9c0.3,0.5,1.3,0.8,2.3,0.8h2.3v1.6
			h-12.8v-1.6h2.3c1.3,0,2.1-0.3,2.6-0.8c0.5-0.5,0.5-1.6,0.5-2.9v-24c0-1.3,0-2.3-0.5-2.9c-0.3-0.3-1.3-0.5-2.3-0.5h-2.6v-1.6h11.2
			l11.5,28.7L268.9,70.1L268.9,70.1z"/>
		<path fill="#FFFFFF" d="M268.9,118.3V116c1.3-0.3,2.9-0.5,4.7-0.5c1.3,0,2.9,0.3,5,0.8c2.3,0.3,3.7,0.5,4.7,0.5c0.3,0,0.5,0,0.8,0
			c0.5,0,0.8,0,1.3,0v8.9h-1.6c-0.3-2.9-1.3-4.7-2.9-6.3c-1.8-1.6-3.9-2.1-6.8-2.1C272,117.3,270.5,117.5,268.9,118.3L268.9,118.3z"
			/>
		<path fill="#FFFFFF" d="M303.6,150.9V149c1.3,0,2.3-0.3,3.7-0.8c1.6-0.8,3.1-1.6,5.2-2.9v2.1c-1.6,1-3.4,2.1-5,2.6
			C306.2,150.6,304.9,150.9,303.6,150.9L303.6,150.9z"/>
		<path fill="#FFFFFF" d="M303.6,137.3v-1.6h3.4v-0.5c0-2.3-0.5-4.2-1.6-5.5c-0.5-0.8-1-1.3-1.8-1.8v-1.6c2.1,0.3,3.9,1.3,5.5,2.9
			c1.8,2.1,2.9,4.7,2.9,8.1H303.6L303.6,137.3z"/>
		<path fill="#FFFFFF" d="M303.6,126.4v1.6c-0.5-0.3-1.3-0.3-2.1-0.3c-1.6,0-3.1,0.5-4.2,2.1c-1,1.6-1.6,3.4-1.6,6h7.8v1.6h-8.1
			c0,0.5,0,0.8,0,1c0,0.3,0,0.3,0,0.5c0,3.1,0.5,5.7,2.1,7.6c1.3,1.8,3.1,2.6,5.7,2.6h0.3v1.8c-0.3,0-0.8,0-1,0
			c-1.6,0-3.1-0.3-4.4-0.8c-1.6-0.5-2.9-1.3-3.9-2.3c-1-1.3-2.1-2.6-2.9-4.4c-0.5-1.6-0.8-3.4-0.8-5.2c0-3.6,1-6.5,3.1-8.6
			c2.1-2.3,5-3.4,8.3-3.4C302.5,126.1,303.1,126.1,303.6,126.4L303.6,126.4z"/>
		<path fill="#FFFFFF" d="M268.9,150.4v-2.6c1.6,1,3.4,1.3,5.5,1.3c2.6,0,4.7-0.8,6.5-2.1c1.6-1.6,2.9-3.7,3.4-6.5h1.6l-0.3,9.1
			c0,0-0.3,0-0.5,0c-0.5-0.3-1-0.3-1.3-0.3c-1,0-2.6,0.3-4.9,0.8c-2.1,0.5-3.9,0.8-5.2,0.8C271.8,150.9,270.2,150.6,268.9,150.4
			L268.9,150.4z"/>
		<path fill="#FFFFFF" d="M268.9,116v2.3c-1.3,0.8-2.6,1.6-3.4,2.9c-2.1,2.9-3.1,6.5-3.1,11.5c0,5.2,1,9.4,3.1,12.2
			c0.8,1.3,2.1,2.3,3.4,2.9v2.6c-3.1-0.8-5.5-2.1-7.6-4.2c-2.9-3.1-4.4-7.6-4.4-13c0-5.5,1.6-9.6,4.4-13
			C263.4,118,266.1,116.7,268.9,116L268.9,116z"/>
	</g>
	<g>
		<path fill="#FFFFFF" d="M160.2,97.8c-5.7,0-10.3-4.4-10.3-9.8c0-5.4,4.6-9.8,10.3-9.8c5.7,0,10.3,4.4,10.3,9.8
			C170.6,93.4,165.9,97.8,160.2,97.8z M160.2,79.2c-5.2,0-9.4,4-9.4,8.8c0,4.9,4.2,8.8,9.4,8.8c5.2,0,9.4-4,9.4-8.8
			C169.6,83.1,165.4,79.2,160.2,79.2z"/>
		<path fill="#FFFFFF" d="M160.2,96.1c-3.2,0-5.9-3.6-5.9-7.9c0-4.4,2.6-7.9,5.9-7.9c3.2,0,5.9,3.6,5.9,7.9
			C166.1,92.5,163.4,96.1,160.2,96.1z M160.2,81.2c-2.7,0-4.9,3.1-4.9,7c0,3.9,2.2,7,4.9,7c2.7,0,4.9-3.1,4.9-7
			C165.1,84.3,162.9,81.2,160.2,81.2z"/>
		<path fill="#FFFFFF" d="M160.2,82.2c-1.5,0-2.7-0.9-2.7-2c0-1.1,1.2-2,2.7-2c1.5,0,2.7,0.9,2.7,2
			C162.9,81.3,161.7,82.2,160.2,82.2z M160.2,79.2c-0.9,0-1.7,0.5-1.7,1c0,0.5,0.7,1,1.7,1c1,0,1.7-0.5,1.7-1
			C161.9,79.7,161.1,79.2,160.2,79.2z"/>
		<path fill="#FFFFFF" d="M160.2,97.8c-1.5,0-2.7-0.8-2.7-1.8c0-1,1.2-1.8,2.7-1.8c1.5,0,2.7,0.8,2.7,1.8
			C162.9,97,161.7,97.8,160.2,97.8z M160.2,95.2c-1.1,0-1.7,0.5-1.7,0.8c0,0.3,0.7,0.8,1.7,0.8c1.1,0,1.7-0.5,1.7-0.8
			C161.9,95.7,161.2,95.2,160.2,95.2z"/>
		<rect x="151.4" y="83.5" fill="#FFFFFF" width="17.7" height="1"/>
		<rect x="150.4" y="87.5" fill="#FFFFFF" width="19.7" height="1"/>
		<rect x="151.1" y="91.1" fill="#FFFFFF" width="18.2" height="1"/>
		<rect x="159.7" y="81.7" fill="#FFFFFF" width="1" height="13.1"/>
	</g>
	<path fill="#FFFFFF" d="M106.6,101.7c0,0-3.8,0-3.8-5.3c0.9-3.6,6.6-3.6,6.6-3.6l0.1-8.9l7.9,0.1c0,0,3.3-38.5-24.6-46.7v80.1h32
		v-15.7H106.6z M105.3,62.8l5.3,4.9l-4.5,5l-5.3-4.9L105.3,62.8z"/>
</g>
</svg>
