<!-- Generator: Adobe Illustrator 18.0.0, SVG Export Plug-In  -->
<svg version="1.1"
	 xmlns="http://www.w3.org/2000/svg" xmlns:xlink="http://www.w3.org/1999/xlink" xmlns:a="http://ns.adobe.com/AdobeSVGViewerExtensions/3.0/"
	 x="0px" y="0px" width="233.3px" height="31.9px" viewBox="0 0 233.3 31.9" enable-background="new 0 0 233.3 31.9"
	 xml:space="preserve">
<defs>
</defs>
<g>
	<g>
		<path fill="#EFEFEB" d="M23.1,7.8l-5.2,16.3h-1.8l-4.6-13.6L7,24.1H5.2L0,7.8h1.9L6,22.1l4.7-14.3h1.7l4.7,14.3l4.2-14.3H23.1z"/>
		<path fill="#EFEFEB" d="M47.2,7.8L42,24.1h-1.8l-4.6-13.6l-4.6,13.6h-1.8L24.1,7.8H26l4.2,14.3l4.7-14.3h1.7l4.7,14.3l4.2-14.3
			H47.2z"/>
		<path fill="#EFEFEB" d="M71.3,7.8l-5.2,16.3h-1.8l-4.6-13.6l-4.6,13.6h-1.8L48.2,7.8h1.9l4.2,14.3l4.7-14.3h1.7l4.7,14.3l4.2-14.3
			H71.3z"/>
		<path fill="#EFEFEB" d="M77.5,24.1H75v-2.5h2.5V24.1z"/>
		<path fill="#EFEFEB" d="M107.3,24.1h-1.7V14c0-1.6-0.4-2.8-1.2-3.6c-0.8-0.8-1.9-1.3-3.3-1.3c-1.4,0-2.5,0.4-3.4,1.2
			s-1.2,1.9-1.2,3.3v10.4h-1.7V14c0-1.6-0.4-2.8-1.2-3.6c-0.8-0.8-1.9-1.3-3.3-1.3c-1,0-1.8,0.2-2.5,0.6c-0.7,0.4-1.2,0.9-1.6,1.7
			S85.7,13,85.7,14v10.1H84V7.8h1.7v1.9c1.2-1.4,2.8-2.1,4.8-2.1c0.8,0,1.5,0.1,2.2,0.3s1.3,0.6,1.8,1c0.5,0.4,0.9,1,1.3,1.6
			c1.3-2,3.1-3,5.5-3c0.9,0,1.7,0.1,2.4,0.4c0.7,0.3,1.3,0.7,1.8,1.2c1.1,1.1,1.7,2.6,1.7,4.5V24.1z"/>
		<path fill="#EFEFEB" d="M119,24.1h-1.5c-1.3,0-2.2-0.4-2.9-1.1c-0.7-0.8-1-1.8-1-3.1V0h1.7v19.8c0,0.9,0.2,1.6,0.6,2.1
			s1,0.7,1.9,0.7h1.2V24.1z"/>
		<path fill="#EFEFEB" d="M135,21.8c-0.9,1-1.7,1.6-2.5,2c-0.8,0.4-1.8,0.5-2.9,0.5c-1.1,0-2.1-0.2-3-0.6c-0.9-0.4-1.6-0.9-2.3-1.7
			c-0.6-0.7-1.1-1.6-1.5-2.7c-0.3-1-0.5-2.2-0.5-3.4c0-1.7,0.3-3.2,0.9-4.5s1.4-2.2,2.5-2.9c1.1-0.7,2.4-1,3.8-1
			c1.2,0,2.1,0.2,2.9,0.5c0.8,0.4,1.6,1,2.5,2l-1.2,1.1c-0.5-0.5-0.9-0.9-1.3-1.2s-0.9-0.5-1.3-0.6c-0.4-0.1-1-0.2-1.6-0.2
			c-1.9,0-3.3,0.7-4.3,2.2c-0.4,0.6-0.7,1.2-0.9,2s-0.3,1.6-0.3,2.7c0,1.1,0.1,2,0.2,2.7c0.2,0.7,0.5,1.4,0.9,2
			c1,1.4,2.4,2.2,4.3,2.2c0.9,0,1.6-0.2,2.2-0.5s1.3-0.8,2-1.6L135,21.8z"/>
		<path fill="#EFEFEB" d="M142.5,24.1H140v-2.5h2.5V24.1z"/>
		<path fill="#EFEFEB" d="M161.2,16.3h-11.3c0,2.1,0.5,3.7,1.4,4.8c0.9,1.1,2.2,1.7,3.9,1.7c0.9,0,1.8-0.1,2.4-0.4
			c0.7-0.3,1.4-0.8,2.1-1.5l1.3,1c-0.9,0.9-1.8,1.5-2.6,1.9c-0.9,0.4-2,0.6-3.3,0.6c-1.5,0-2.8-0.3-3.8-0.9c-1-0.6-1.8-1.6-2.3-2.8
			c-0.5-1.2-0.8-2.8-0.8-4.6c0-1.3,0.1-2.5,0.4-3.5c0.3-1,0.7-1.9,1.3-2.6c0.6-0.7,1.2-1.2,2.1-1.6c0.8-0.4,1.7-0.6,2.7-0.6
			c1,0,1.9,0.2,2.7,0.5s1.5,0.9,2.1,1.6c0.6,0.7,1,1.5,1.3,2.5c0.3,1,0.4,2.1,0.4,3.4V16.3z M159.4,14.9c0-0.8-0.1-1.4-0.1-1.7
			c-0.1-0.4-0.2-0.8-0.4-1.3c-0.3-0.8-0.9-1.5-1.7-2c-0.8-0.5-1.6-0.7-2.5-0.7c-0.9,0-1.8,0.2-2.5,0.7s-1.3,1.2-1.7,2
			c-0.2,0.5-0.3,1-0.4,1.4c-0.1,0.4-0.1,1-0.2,1.7H159.4z"/>
		<path fill="#EFEFEB" d="M178.4,24.1h-1.7V22c-0.5,0.6-0.9,1.1-1.4,1.4c-0.5,0.3-1,0.6-1.6,0.7c-0.6,0.1-1.2,0.2-1.8,0.2
			c-1.7,0-3.1-0.5-4-1.4c-1.4-1.4-2.1-3.7-2.1-6.9c0-3.2,0.7-5.5,2.1-6.9c0.4-0.4,1-0.8,1.7-1c0.7-0.3,1.5-0.4,2.3-0.4
			c1,0,1.9,0.2,2.7,0.5c0.8,0.3,1.5,0.9,2.2,1.8V0h1.7V24.1z M176.7,15.9c0-2.1-0.3-3.7-0.9-5c-0.6-1.2-1.9-1.9-3.7-1.9
			c-1.8,0-3,0.6-3.7,1.9c-0.6,1.2-0.9,2.9-0.9,5c0,2.1,0.3,3.7,0.9,5c0.6,1.2,1.8,1.9,3.7,1.9c1.8,0,3-0.6,3.7-1.9
			C176.4,19.7,176.7,18,176.7,15.9z"/>
		<path fill="#EFEFEB" d="M197.4,24.1h-1.7v-1.9c-1.2,1.4-2.8,2.1-4.8,2.1c-1.8,0-3.3-0.5-4.3-1.6c-1.1-1.1-1.7-2.6-1.7-4.5V7.8h1.8
			v10.1c0,1.6,0.4,2.8,1.2,3.6s1.9,1.3,3.3,1.3c1,0,1.8-0.2,2.5-0.6c0.7-0.4,1.2-0.9,1.6-1.7s0.5-1.6,0.5-2.6V7.8h1.7V24.1z"/>
		<path fill="#EFEFEB" d="M206.4,24.1h-2.5v-2.5h2.5V24.1z"/>
		<path fill="#EFEFEB" d="M214.6,27.6c0,1.3-0.3,2.4-1,3.1c-0.7,0.7-1.6,1.1-2.9,1.1h-1.5v-1.5h1.2c0.9,0,1.6-0.2,2-0.7
			c0.4-0.4,0.6-1.1,0.6-2.1V7.8h1.7V27.6z M214.8,2.1h-2.1V0h2.1V2.1z"/>
		<path fill="#EFEFEB" d="M233.3,15.9c0,0.9-0.1,1.7-0.2,2.5s-0.3,1.5-0.6,2.2s-0.7,1.3-1.3,1.9c-1.2,1.2-2.7,1.8-4.5,1.8
			c-1.8,0-3.3-0.6-4.5-1.8c-0.5-0.5-1-1.2-1.3-1.9c-0.3-0.7-0.5-1.4-0.6-2.2c-0.1-0.8-0.2-1.6-0.2-2.5c0-1.4,0.1-2.6,0.4-3.7
			c0.3-1.1,0.8-2.1,1.6-2.8c1.2-1.2,2.7-1.8,4.5-1.8c1.8,0,3.3,0.6,4.5,1.8c0.5,0.5,1,1.2,1.3,1.9s0.5,1.4,0.6,2.2
			S233.3,15.1,233.3,15.9z M231.6,15.9c0-1.3-0.1-2.3-0.3-3.2c-0.2-0.9-0.6-1.6-1.2-2.2c-0.9-0.9-2-1.4-3.4-1.4
			c-1.4,0-2.5,0.5-3.4,1.4c-0.6,0.6-1,1.4-1.2,2.3c-0.2,0.9-0.3,2-0.3,3.2c0,1.2,0.1,2.2,0.3,3.2c0.2,0.9,0.6,1.7,1.2,2.3
			c0.9,0.9,2.1,1.4,3.4,1.4c1.3,0,2.4-0.5,3.4-1.4c0.6-0.6,1-1.4,1.2-2.2S231.6,17.2,231.6,15.9z"/>
	</g>
</g>
</svg>
