<!-- Generator: Adobe Illustrator 18.0.0, SVG Export Plug-In  -->
<svg version="1.1"
	 xmlns="http://www.w3.org/2000/svg" xmlns:xlink="http://www.w3.org/1999/xlink" xmlns:a="http://ns.adobe.com/AdobeSVGViewerExtensions/3.0/"
	 x="0px" y="0px" width="227.2px" height="19.8px" viewBox="0 0 227.2 19.8" enable-background="new 0 0 227.2 19.8"
	 xml:space="preserve">
<defs>
</defs>
<g>
	<g>
		<path fill="#FFFFFF" d="M0,15V3.5c0-1,0.3-1.8,1-2.4c0.7-0.7,1.5-1,2.4-1H15c1,0,1.8,0.3,2.4,1c0.7,0.7,1,1.5,1,2.4V15
			c0,1-0.3,1.8-1,2.4c-0.7,0.7-1.5,1-2.4,1H3.5c-1,0-1.8-0.3-2.4-1C0.3,16.7,0,15.9,0,15z M3.1,13.5c1.2,0.8,2.5,1.1,3.9,1.1
			c0.9,0,1.7-0.1,2.5-0.4c0.8-0.3,1.5-0.7,2-1.1c0.6-0.5,1-1,1.4-1.6c0.4-0.6,0.7-1.3,0.9-1.9c0.2-0.7,0.3-1.3,0.3-2
			c0-0.1,0-0.3,0-0.3c0.5-0.4,0.9-0.8,1.3-1.3c-0.4,0.2-0.9,0.3-1.5,0.4c0.5-0.3,0.9-0.8,1.1-1.4c-0.5,0.3-1.1,0.5-1.6,0.6
			c-0.5-0.5-1.1-0.8-1.8-0.8c-0.7,0-1.3,0.2-1.8,0.7S9.1,6.4,9.1,7.1c0,0.2,0,0.4,0.1,0.6c-1-0.1-2-0.3-2.9-0.8
			C5.3,6.5,4.5,5.8,3.9,5.1C3.7,5.5,3.6,5.9,3.6,6.3c0,0.9,0.4,1.6,1.1,2.1c-0.4,0-0.8-0.1-1.2-0.3v0c0,0.6,0.2,1.1,0.6,1.6
			c0.4,0.5,0.9,0.8,1.5,0.9c-0.2,0.1-0.4,0.1-0.6,0.1c-0.1,0-0.3,0-0.5,0c0.2,0.5,0.5,0.9,0.9,1.2c0.4,0.3,0.9,0.5,1.5,0.5
			c-0.9,0.7-2,1.1-3.1,1.1C3.5,13.5,3.3,13.5,3.1,13.5z"/>
		<path fill="#EFEFEB" d="M36,16.9h-1V6.4l-3.9,8.7h-1l-3.9-8.7v10.5h-1V4.1h1l4.4,9.8L35,4.1h1V16.9z"/>
		<path fill="#EFEFEB" d="M47.7,16.9h-7.7V4.1h1V16h6.8V16.9z"/>
		<path fill="#EFEFEB" d="M58.4,13.3c-0.1,0.8-0.4,1.4-0.8,2c-0.4,0.6-0.9,1-1.5,1.3S54.8,17,54,17c-0.6,0-1.2-0.1-1.7-0.3
			c-0.6-0.2-1-0.5-1.5-1c-0.4-0.4-0.7-0.8-0.8-1.2s-0.3-0.9-0.3-1.4c0-0.5-0.1-1.4-0.1-2.5s0-2,0.1-2.5c0-0.5,0.1-1,0.3-1.4
			s0.4-0.8,0.8-1.2c0.4-0.4,0.9-0.7,1.4-1C52.9,4.1,53.4,4,54,4c0.7,0,1.4,0.1,2,0.4c0.6,0.3,1.1,0.7,1.5,1.3c0.4,0.6,0.7,1.2,0.8,2
			h-1c-0.2-0.9-0.6-1.6-1.2-2.1S54.9,4.9,54,4.9c-0.5,0-0.9,0.1-1.3,0.2c-0.4,0.2-0.8,0.4-1.1,0.7c-0.2,0.2-0.4,0.5-0.5,0.7
			c-0.1,0.2-0.2,0.6-0.3,0.9c-0.1,0.4-0.1,0.8-0.1,1.3c0,0.5,0,1.1,0,1.7c0,1,0,1.8,0.1,2.3s0.1,1,0.3,1.3c0.1,0.4,0.4,0.7,0.6,1
			c0.3,0.3,0.7,0.6,1.1,0.7c0.4,0.2,0.9,0.3,1.3,0.3c0.6,0,1.1-0.1,1.5-0.3c0.5-0.2,0.9-0.6,1.2-1s0.5-0.9,0.7-1.5H58.4z"/>
		<path fill="#EFEFEB" d="M69,19.8h-9.2v-0.7H69V19.8z"/>
		<path fill="#EFEFEB" d="M77.6,4.1l-3.8,7.5v5.3h-1v-5.3l-3.8-7.5h1l3.2,6.4l3.2-6.4H77.6z"/>
		<path fill="#EFEFEB" d="M86,12.8h-6c0,1.1,0.2,1.9,0.7,2.5c0.5,0.6,1.2,0.9,2.1,0.9c0.5,0,0.9-0.1,1.3-0.2
			c0.4-0.2,0.7-0.4,1.1-0.8l0.7,0.5c-0.5,0.5-0.9,0.8-1.4,1c-0.5,0.2-1,0.3-1.7,0.3c-0.8,0-1.5-0.2-2-0.5c-0.5-0.3-1-0.8-1.2-1.5
			S79,13.5,79,12.6c0-0.7,0.1-1.3,0.2-1.9s0.4-1,0.7-1.4C80.2,9,80.6,8.7,81,8.5c0.4-0.2,0.9-0.3,1.5-0.3c0.5,0,1,0.1,1.4,0.3
			c0.4,0.2,0.8,0.5,1.1,0.8c0.3,0.4,0.5,0.8,0.7,1.3s0.2,1.1,0.2,1.8V12.8z M85,12c0-0.4,0-0.7-0.1-0.9c0-0.2-0.1-0.4-0.2-0.7
			c-0.2-0.4-0.5-0.8-0.9-1.1C83.4,9.1,83,9,82.5,9c-0.5,0-0.9,0.1-1.3,0.4c-0.4,0.3-0.7,0.6-0.9,1.1c-0.1,0.3-0.2,0.5-0.2,0.7
			c0,0.2-0.1,0.5-0.1,0.9H85z"/>
		<path fill="#EFEFEB" d="M95,14.4c0,0.5-0.1,1-0.4,1.4c-0.3,0.4-0.7,0.7-1.2,0.9S92.3,17,91.6,17c-1.5,0-2.6-0.4-3.5-1.2l0.6-0.6
			c0.7,0.7,1.6,1.1,2.8,1.1c0.8,0,1.5-0.1,1.9-0.4s0.7-0.7,0.7-1.3c0-0.4-0.1-0.8-0.4-1S93,13,92.5,13L91,12.9
			c-1.7-0.1-2.6-0.9-2.6-2.3c0-0.5,0.1-0.9,0.4-1.3c0.3-0.4,0.6-0.7,1.1-0.9c0.5-0.2,1-0.3,1.6-0.3c0.6,0,1.2,0.1,1.7,0.2
			c0.5,0.2,1,0.4,1.3,0.7L94,9.7c-0.7-0.5-1.5-0.7-2.4-0.7c-0.7,0-1.3,0.1-1.6,0.4c-0.4,0.3-0.6,0.7-0.6,1.2c0,0.5,0.1,0.8,0.4,1
			c0.3,0.2,0.7,0.4,1.3,0.4l1.4,0.1c0.8,0.1,1.4,0.3,1.9,0.6S95,13.7,95,14.4z"/>
		<path fill="#FFFFFF" d="M105.2,15.2V4.7c0-0.9,0.3-1.6,0.9-2.2c0.6-0.6,1.4-0.9,2.2-0.9h10.4c0.9,0,1.6,0.3,2.2,0.9
			c0.6,0.6,0.9,1.4,0.9,2.2v10.4c0,0.9-0.3,1.6-0.9,2.2c-0.6,0.6-1.4,0.9-2.2,0.9h-2.1v-6.6h2.2l0.3-2.4h-2.5V7.7
			c0-0.4,0.1-0.7,0.3-0.9c0.2-0.2,0.6-0.3,1-0.3l1.4,0V4.2c-0.7-0.1-1.3-0.1-2-0.1c-1,0-1.8,0.3-2.4,0.9c-0.6,0.6-0.9,1.4-0.9,2.5
			v1.8h-2.4v2.4h2.4v6.6h-5.9c-0.9,0-1.6-0.3-2.2-0.9C105.5,16.8,105.2,16,105.2,15.2z"/>
		<path fill="#EFEFEB" d="M138.7,16.9h-1V6.4l-3.9,8.7h-1l-3.9-8.7v10.5h-1V4.1h1l4.4,9.8l4.3-9.8h1V16.9z"/>
		<path fill="#EFEFEB" d="M150.4,16.9h-7.7V4.1h1V16h6.8V16.9z"/>
		<path fill="#EFEFEB" d="M161.1,13.3c-0.1,0.8-0.4,1.4-0.8,2c-0.4,0.6-0.9,1-1.5,1.3s-1.3,0.4-2,0.4c-0.6,0-1.2-0.1-1.7-0.3
			c-0.6-0.2-1-0.5-1.5-1c-0.4-0.4-0.7-0.8-0.8-1.2s-0.3-0.9-0.3-1.4c0-0.5-0.1-1.4-0.1-2.5s0-2,0.1-2.5c0-0.5,0.1-1,0.3-1.4
			s0.4-0.8,0.8-1.2c0.4-0.4,0.9-0.7,1.4-1c0.6-0.2,1.1-0.3,1.7-0.3c0.7,0,1.4,0.1,2,0.4c0.6,0.3,1.1,0.7,1.5,1.3
			c0.4,0.6,0.7,1.2,0.8,2h-1c-0.2-0.9-0.6-1.6-1.2-2.1s-1.3-0.8-2.2-0.8c-0.5,0-0.9,0.1-1.3,0.2c-0.4,0.2-0.8,0.4-1.1,0.7
			c-0.2,0.2-0.4,0.5-0.5,0.7c-0.1,0.2-0.2,0.6-0.3,0.9c-0.1,0.4-0.1,0.8-0.1,1.3c0,0.5,0,1.1,0,1.7c0,1,0,1.8,0.1,2.3s0.1,1,0.3,1.3
			c0.1,0.4,0.4,0.7,0.6,1c0.3,0.3,0.7,0.6,1.1,0.7c0.4,0.2,0.9,0.3,1.3,0.3c0.6,0,1.1-0.1,1.5-0.3c0.5-0.2,0.9-0.6,1.2-1
			s0.5-0.9,0.7-1.5H161.1z"/>
		<path fill="#EFEFEB" d="M165.5,16.9h-1.3v-1.3h1.3V16.9z"/>
		<path fill="#EFEFEB" d="M177.7,16.9h-1l-1.1-3.1h-5.9l-1.1,3.1h-1l4.7-12.8h0.9L177.7,16.9z M175.2,12.9l-2.7-7.5l-2.7,7.5H175.2z
			"/>
		<path fill="#EFEFEB" d="M192.1,16.9h-0.9v-5.4c0-0.8-0.2-1.5-0.6-1.9c-0.4-0.4-1-0.7-1.8-0.7c-0.7,0-1.3,0.2-1.8,0.7
			c-0.4,0.4-0.7,1-0.7,1.8v5.5h-0.9v-5.4c0-0.8-0.2-1.5-0.6-1.9c-0.4-0.4-1-0.7-1.8-0.7c-0.5,0-1,0.1-1.3,0.3s-0.6,0.5-0.8,0.9
			c-0.2,0.4-0.3,0.9-0.3,1.4v5.4h-0.9V8.3h0.9v1c0.6-0.8,1.5-1.1,2.6-1.1c0.4,0,0.8,0.1,1.2,0.2c0.4,0.1,0.7,0.3,0.9,0.5
			c0.3,0.2,0.5,0.5,0.7,0.9c0.7-1,1.6-1.6,2.9-1.6c0.5,0,0.9,0.1,1.3,0.2c0.4,0.1,0.7,0.3,1,0.6c0.6,0.6,0.9,1.4,0.9,2.4V16.9z"/>
		<path fill="#EFEFEB" d="M207.8,16.9h-0.9v-5.4c0-0.8-0.2-1.5-0.6-1.9c-0.4-0.4-1-0.7-1.8-0.7c-0.7,0-1.3,0.2-1.8,0.7
			c-0.4,0.4-0.7,1-0.7,1.8v5.5h-0.9v-5.4c0-0.8-0.2-1.5-0.6-1.9c-0.4-0.4-1-0.7-1.8-0.7c-0.5,0-1,0.1-1.3,0.3s-0.6,0.5-0.8,0.9
			c-0.2,0.4-0.3,0.9-0.3,1.4v5.4h-0.9V8.3h0.9v1c0.6-0.8,1.5-1.1,2.6-1.1c0.4,0,0.8,0.1,1.2,0.2c0.4,0.1,0.7,0.3,0.9,0.5
			c0.3,0.2,0.5,0.5,0.7,0.9c0.7-1,1.6-1.6,2.9-1.6c0.5,0,0.9,0.1,1.3,0.2c0.4,0.1,0.7,0.3,1,0.6c0.6,0.6,0.9,1.4,0.9,2.4V16.9z"/>
		<path fill="#EFEFEB" d="M217.2,16.9h-0.9V16c-0.4,0.4-0.7,0.6-1.1,0.8s-0.9,0.2-1.5,0.2c-0.4,0-0.8,0-1.1-0.1
			c-0.3-0.1-0.6-0.1-0.8-0.3c-0.2-0.1-0.4-0.3-0.6-0.5c-0.4-0.4-0.6-1-0.6-1.7c0-0.8,0.3-1.4,0.8-1.8c0.5-0.4,1.3-0.7,2.2-0.7h2.8
			v-1c0-0.7-0.2-1.2-0.6-1.6c-0.4-0.3-1-0.5-1.9-0.5c-0.6,0-1.1,0.1-1.4,0.2c-0.4,0.2-0.7,0.4-0.9,0.8l-0.7-0.6
			c0.2-0.3,0.5-0.6,0.8-0.8c0.3-0.2,0.6-0.3,1-0.4c0.4-0.1,0.8-0.1,1.3-0.1c2.2,0,3.4,0.9,3.4,2.8V16.9z M216.2,13.9v-1.1h-2.7
			c-1.5,0-2.2,0.6-2.2,1.7c0,0.6,0.2,1,0.5,1.3c0.4,0.3,0.9,0.4,1.7,0.4c0.5,0,0.9,0,1.2-0.1c0.3-0.1,0.7-0.3,0.9-0.5
			C216.1,15.2,216.2,14.7,216.2,13.9z"/>
		<path fill="#EFEFEB" d="M227.2,16.9h-0.9v-5.4c0-0.8-0.2-1.5-0.6-1.9c-0.4-0.4-1-0.7-1.8-0.7c-0.5,0-1,0.1-1.3,0.3
			s-0.6,0.5-0.8,0.9c-0.2,0.4-0.3,0.9-0.3,1.4v5.4h-0.9V8.3h0.9v1c0.6-0.8,1.5-1.1,2.5-1.1c1,0,1.7,0.3,2.3,0.8
			c0.6,0.6,0.9,1.4,0.9,2.4V16.9z"/>
	</g>
</g>
</svg>
