<!-- Generator: Adobe Illustrator 18.0.0, SVG Export Plug-In  -->
<svg version="1.1"
	 xmlns="http://www.w3.org/2000/svg" xmlns:xlink="http://www.w3.org/1999/xlink" xmlns:a="http://ns.adobe.com/AdobeSVGViewerExtensions/3.0/"
	 x="0px" y="0px" width="510.8px" height="68px" viewBox="0 0 510.8 68" enable-background="new 0 0 510.8 68" xml:space="preserve"
	>
<defs>
</defs>
<g>
	<g>
		<path fill="#FFFFFF" d="M0,8.5c0-1.1,0.3-2.2,0.9-3.3C1.6,4,2.2,3.3,2.8,3.1C3.1,3,3.5,2.8,4,2.7c0.5-0.1,0.9-0.2,1.2-0.2
			c0.2,0,0.3,0,0.4,0.1c0.2,0.1,0.5,0.5,0.9,1.3C6.6,4.1,6.8,4.5,7,4.9C7.3,5.3,7.5,5.7,7.6,6C7.8,6.3,8,6.6,8.2,6.9
			c0,0,0.1,0.2,0.3,0.4S8.8,7.8,8.9,8S9,8.3,9,8.5C9,8.7,8.8,9,8.5,9.4s-0.7,0.7-1.1,1c-0.4,0.3-0.8,0.6-1.1,0.9
			c-0.3,0.3-0.5,0.6-0.5,0.8c0,0.1,0,0.2,0.1,0.4C6,12.6,6,12.8,6.1,12.8c0,0.1,0.1,0.2,0.2,0.4c0.1,0.2,0.2,0.3,0.2,0.3
			c0.9,1.6,1.9,3,3.1,4.1s2.5,2.2,4.1,3.1c0,0,0.1,0.1,0.3,0.2c0.2,0.1,0.3,0.2,0.4,0.2c0.1,0,0.2,0.1,0.4,0.1
			c0.2,0.1,0.3,0.1,0.4,0.1c0.2,0,0.5-0.2,0.8-0.5c0.3-0.3,0.6-0.7,0.9-1.1c0.3-0.4,0.6-0.8,1-1.1s0.6-0.5,0.9-0.5
			c0.2,0,0.3,0,0.5,0.1s0.4,0.2,0.6,0.4s0.4,0.3,0.4,0.3c0.3,0.2,0.6,0.4,0.9,0.5c0.3,0.2,0.7,0.4,1.1,0.6c0.4,0.2,0.7,0.4,0.9,0.5
			c0.8,0.4,1.3,0.7,1.3,0.9c0,0.1,0.1,0.2,0.1,0.4c0,0.3-0.1,0.7-0.2,1.2c-0.1,0.5-0.2,0.9-0.4,1.2c-0.2,0.6-1,1.2-2.1,1.9
			c-1.1,0.6-2.2,0.9-3.3,0.9c-0.3,0-0.6,0-0.9-0.1s-0.6-0.1-1-0.2c-0.4-0.1-0.7-0.2-0.8-0.3c-0.2-0.1-0.5-0.2-1-0.4
			c-0.5-0.2-0.8-0.3-0.9-0.3c-1.1-0.4-2.2-0.9-3.1-1.5c-1.5-0.9-3-2.2-4.6-3.8s-2.9-3.1-3.8-4.6c-0.6-0.9-1-1.9-1.5-3.1
			c0-0.1-0.1-0.4-0.3-0.9c-0.2-0.5-0.3-0.8-0.4-1c-0.1-0.2-0.1-0.5-0.3-0.8c-0.1-0.4-0.2-0.7-0.2-1S0,8.8,0,8.5z"/>
		<path fill="#EFEFEB" d="M47.5,19.6h-5.8v5.8h-1.5v-5.8h-5.8v-1.5h5.8v-5.8h1.5v5.8h5.8V19.6z"/>
		<path fill="#EFEFEB" d="M63.4,10.6c0,1.5-0.4,3.1-1.3,4.8l-5.9,11.9h-1.6l5.3-10.6c-0.8,0.4-1.7,0.5-2.7,0.5
			c-1.2,0-2.3-0.3-3.2-0.8c-0.9-0.6-1.6-1.3-2-2.3c-0.5-1-0.7-2.1-0.7-3.3c0-0.9,0.1-1.8,0.4-2.6c0.3-0.8,0.7-1.5,1.2-2.1
			C53.4,5.5,54,5,54.8,4.7c0.8-0.3,1.6-0.5,2.5-0.5c1.3,0,2.3,0.3,3.3,0.8c0.9,0.5,1.6,1.3,2.1,2.3C63.2,8.3,63.4,9.4,63.4,10.6z
			 M61.8,10.7c0-1-0.2-1.9-0.5-2.7s-0.9-1.4-1.6-1.8c-0.7-0.4-1.5-0.6-2.3-0.6c-1.4,0-2.4,0.5-3.2,1.4c-0.8,0.9-1.2,2.2-1.2,3.7
			c0,0.9,0.2,1.8,0.5,2.6c0.3,0.8,0.8,1.4,1.5,1.8c0.7,0.5,1.5,0.7,2.4,0.7c0.9,0,1.7-0.2,2.3-0.6c0.7-0.4,1.2-1,1.6-1.8
			C61.6,12.6,61.8,11.7,61.8,10.7z"/>
		<path fill="#EFEFEB" d="M80.1,20.8c0,0.9-0.1,1.8-0.4,2.6s-0.7,1.5-1.2,2.1c-0.5,0.6-1.2,1.1-1.9,1.4c-0.8,0.3-1.6,0.5-2.6,0.5
			c-1.9,0-3.4-0.6-4.5-1.8C68.5,24.5,68,23,68,21.1c0-0.7,0.1-1.5,0.3-2.2s0.5-1.6,1-2.6l5.9-11.9h1.6L71.5,15
			c0.8-0.4,1.6-0.5,2.7-0.5c1.2,0,2.3,0.3,3.2,0.8c0.9,0.6,1.6,1.3,2,2.3C79.9,18.5,80.1,19.6,80.1,20.8z M78.5,21
			c0-1.5-0.4-2.7-1.2-3.6s-1.9-1.5-3.3-1.5c-1.3,0-2.4,0.5-3.2,1.4c-0.8,0.9-1.2,2.2-1.2,3.7c0,1.5,0.4,2.8,1.2,3.7
			c0.8,0.9,1.9,1.4,3.2,1.4c0.9,0,1.7-0.2,2.3-0.6c0.7-0.4,1.2-1,1.6-1.8C78.3,22.9,78.5,22,78.5,21z"/>
		<path fill="#EFEFEB" d="M96.7,27.3H84.6v-1.4l9.2-12.1c0.9-1.1,1.3-2.3,1.3-3.6c0-0.9-0.2-1.7-0.5-2.4c-0.4-0.7-0.9-1.2-1.5-1.6
			c-0.7-0.4-1.4-0.6-2.3-0.6c-1.3,0-2.3,0.4-3.2,1.1s-1.2,1.9-1.2,3.4h-1.6c0-1.8,0.5-3.2,1.6-4.3s2.6-1.7,4.4-1.7
			c0.9,0,1.8,0.1,2.5,0.4c0.7,0.3,1.4,0.7,1.9,1.2C95.6,6.4,96,7,96.3,7.7s0.4,1.6,0.4,2.5c0,0.8-0.1,1.6-0.4,2.3
			c-0.2,0.7-0.6,1.4-1.2,2.1l-8.6,11.2h10.2V27.3z"/>
		<path fill="#EFEFEB" d="M121.4,20.8c0,0.9-0.1,1.8-0.4,2.6s-0.7,1.5-1.2,2.1c-0.5,0.6-1.2,1.1-1.9,1.4c-0.8,0.3-1.6,0.5-2.6,0.5
			c-1.9,0-3.4-0.6-4.5-1.8c-1.1-1.2-1.6-2.7-1.6-4.6c0-0.7,0.1-1.5,0.3-2.2s0.5-1.6,1-2.6l5.9-11.9h1.6L112.8,15
			c0.8-0.4,1.6-0.5,2.7-0.5c1.2,0,2.3,0.3,3.2,0.8c0.9,0.6,1.6,1.3,2,2.3C121.2,18.5,121.4,19.6,121.4,20.8z M119.8,21
			c0-1.5-0.4-2.7-1.2-3.6s-1.9-1.5-3.3-1.5c-1.3,0-2.4,0.5-3.2,1.4c-0.8,0.9-1.2,2.2-1.2,3.7c0,1.5,0.4,2.8,1.2,3.7
			c0.8,0.9,1.9,1.4,3.2,1.4c0.9,0,1.7-0.2,2.3-0.6c0.7-0.4,1.2-1,1.6-1.8C119.6,22.9,119.8,22,119.8,21z"/>
		<path fill="#EFEFEB" d="M146.9,23.5h-3.1v3.8h-1.6v-3.8h-9.1v-1.4l8.4-17.7h1.7l-8.4,17.7h7.3v-7.3h1.6v7.3h3.1V23.5z"/>
		<path fill="#EFEFEB" d="M162.7,20.8c0,0.9-0.1,1.8-0.4,2.6s-0.7,1.5-1.2,2.1c-0.5,0.6-1.2,1.1-1.9,1.4c-0.8,0.3-1.6,0.5-2.6,0.5
			c-1.9,0-3.4-0.6-4.5-1.8c-1.1-1.2-1.6-2.7-1.6-4.6c0-0.7,0.1-1.5,0.3-2.2s0.5-1.6,1-2.6l5.9-11.9h1.6L154.1,15
			c0.8-0.4,1.6-0.5,2.7-0.5c1.2,0,2.3,0.3,3.2,0.8c0.9,0.6,1.6,1.3,2,2.3C162.5,18.5,162.7,19.6,162.7,20.8z M161,21
			c0-1.5-0.4-2.7-1.2-3.6s-1.9-1.5-3.3-1.5c-1.3,0-2.4,0.5-3.2,1.4c-0.8,0.9-1.2,2.2-1.2,3.7c0,1.5,0.4,2.8,1.2,3.7
			c0.8,0.9,1.9,1.4,3.2,1.4c0.9,0,1.7-0.2,2.3-0.6c0.7-0.4,1.2-1,1.6-1.8C160.9,22.9,161,22,161,21z"/>
		<path fill="#EFEFEB" d="M179.3,27.3h-12.1v-1.4l9.2-12.1c0.9-1.1,1.3-2.3,1.3-3.6c0-0.9-0.2-1.7-0.5-2.4c-0.4-0.7-0.9-1.2-1.5-1.6
			c-0.7-0.4-1.4-0.6-2.3-0.6c-1.3,0-2.3,0.4-3.2,1.1s-1.2,1.9-1.2,3.4h-1.6c0-1.8,0.5-3.2,1.6-4.3s2.6-1.7,4.4-1.7
			c0.9,0,1.8,0.1,2.5,0.4c0.7,0.3,1.4,0.7,1.9,1.2c0.5,0.5,0.9,1.1,1.2,1.9s0.4,1.6,0.4,2.5c0,0.8-0.1,1.6-0.4,2.3
			c-0.2,0.7-0.6,1.4-1.2,2.1l-8.6,11.2h10.2V27.3z"/>
		<path fill="#EFEFEB" d="M195.9,19.8c0,1.4-0.1,2.6-0.3,3.5c-0.2,1-0.7,1.8-1.4,2.6c-1.1,1.1-2.6,1.6-4.4,1.6
			c-1.9,0-3.4-0.5-4.4-1.5c-0.9-0.9-1.4-2.1-1.5-3.7h1.6c0.2,1.3,0.6,2.2,1.3,2.9c0.7,0.6,1.7,1,3,1c0.6,0,1.2-0.1,1.8-0.3
			c0.6-0.2,1-0.5,1.4-0.8c0.6-0.6,1-1.3,1.1-2.1c0.2-0.8,0.2-1.8,0.2-3c0-1.8-0.3-3.3-0.9-4.4c-0.6-1.1-1.7-1.7-3.4-1.7
			c-1,0-1.9,0.2-2.7,0.6c-0.7,0.4-1.2,1-1.5,1.8h-1.4V4.4h11v1.4h-9.5v8.1c1-1.1,2.4-1.7,4.3-1.7c1.7,0,3,0.5,3.9,1.4
			c0.7,0.7,1.2,1.6,1.5,2.7C195.8,17.3,195.9,18.5,195.9,19.8z"/>
		<path fill="#EFEFEB" d="M212.4,19.8c0,1.4-0.1,2.6-0.3,3.5c-0.2,1-0.7,1.8-1.4,2.6c-1.1,1.1-2.6,1.6-4.4,1.6
			c-1.9,0-3.4-0.5-4.4-1.5c-0.9-0.9-1.4-2.1-1.5-3.7h1.6c0.2,1.3,0.6,2.2,1.3,2.9c0.7,0.6,1.7,1,3,1c0.6,0,1.2-0.1,1.8-0.3
			c0.6-0.2,1-0.5,1.4-0.8c0.6-0.6,1-1.3,1.1-2.1c0.2-0.8,0.2-1.8,0.2-3c0-1.8-0.3-3.3-0.9-4.4c-0.6-1.1-1.7-1.7-3.4-1.7
			c-1,0-1.9,0.2-2.7,0.6c-0.7,0.4-1.2,1-1.5,1.8h-1.4V4.4h11v1.4h-9.5v8.1c1-1.1,2.4-1.7,4.3-1.7c1.7,0,3,0.5,3.9,1.4
			c0.7,0.7,1.2,1.6,1.5,2.7C212.3,17.3,212.4,18.5,212.4,19.8z"/>
		<path fill="#EFEFEB" d="M229.3,21.1c0,1.2-0.3,2.3-0.9,3.3c-0.6,1-1.4,1.7-2.3,2.3s-2.1,0.8-3.3,0.8c-1.2,0-2.3-0.3-3.3-0.8
			s-1.8-1.3-2.3-2.3c-0.6-1-0.9-2.1-0.9-3.3c0-1.3,0.3-2.4,1-3.4s1.5-1.8,2.7-2.4c-1-0.6-1.8-1.3-2.4-2.2c-0.5-0.9-0.8-1.9-0.8-3.1
			c0-0.8,0.1-1.6,0.4-2.3c0.3-0.7,0.7-1.4,1.2-1.9c0.5-0.5,1.2-1,1.9-1.3s1.6-0.5,2.4-0.5c1.2,0,2.2,0.3,3.1,0.8
			c0.9,0.5,1.6,1.2,2.1,2.1c0.5,0.9,0.8,1.9,0.8,3c0,1.2-0.3,2.2-0.8,3.1c-0.5,0.9-1.3,1.6-2.3,2.1c0.7,0.4,1.4,0.9,1.9,1.4
			s1,1.2,1.2,1.9S229.3,20.3,229.3,21.1z M227.6,21.1c0-0.7-0.1-1.4-0.4-2c-0.2-0.6-0.6-1.1-1-1.6s-1-0.8-1.6-1.1
			c-0.6-0.3-1.2-0.4-2-0.4c-0.9,0-1.7,0.2-2.5,0.7c-0.7,0.4-1.3,1-1.8,1.8c-0.4,0.8-0.6,1.6-0.6,2.5c0,1.4,0.5,2.5,1.4,3.5
			c0.9,0.9,2.1,1.4,3.5,1.4c0.9,0,1.7-0.2,2.5-0.6c0.8-0.4,1.4-1,1.8-1.8C227.4,22.8,227.6,22,227.6,21.1z M227.1,10.2
			c0-0.9-0.2-1.6-0.6-2.3c-0.4-0.7-0.9-1.2-1.6-1.6c-0.7-0.4-1.4-0.6-2.3-0.6c-0.9,0-1.6,0.2-2.3,0.6c-0.7,0.4-1.2,0.9-1.5,1.6
			c-0.4,0.7-0.5,1.5-0.5,2.3c0,1.3,0.4,2.4,1.2,3.3c0.8,0.8,1.9,1.3,3.2,1.3c0.9,0,1.6-0.2,2.3-0.6c0.7-0.4,1.2-0.9,1.6-1.6
			C226.9,11.8,227.1,11,227.1,10.2z"/>
		<path fill="#EFEFEB" d="M245.5,27.3h-12.1v-1.4l9.2-12.1c0.9-1.1,1.3-2.3,1.3-3.6c0-0.9-0.2-1.7-0.5-2.4c-0.4-0.7-0.9-1.2-1.5-1.6
			c-0.7-0.4-1.4-0.6-2.3-0.6c-1.3,0-2.3,0.4-3.2,1.1s-1.2,1.9-1.2,3.4h-1.6c0-1.8,0.5-3.2,1.6-4.3s2.6-1.7,4.4-1.7
			c0.9,0,1.8,0.1,2.5,0.4c0.7,0.3,1.4,0.7,1.9,1.2c0.5,0.5,0.9,1.1,1.2,1.9s0.4,1.6,0.4,2.5c0,0.8-0.1,1.6-0.4,2.3
			c-0.2,0.7-0.6,1.4-1.2,2.1l-8.6,11.2h10.2V27.3z"/>
		<path fill="#FFFFFF" d="M8.2,64.8V43.1c0-0.7,0.3-1.4,0.8-1.9c0.5-0.5,1.2-0.8,1.9-0.8h10.8c0.7,0,1.4,0.3,1.9,0.8
			c0.5,0.5,0.8,1.2,0.8,1.9v21.7c0,0.7-0.3,1.4-0.8,1.9c-0.5,0.5-1.2,0.8-1.9,0.8H10.9c-0.7,0-1.4-0.3-1.9-0.8
			C8.5,66.2,8.2,65.6,8.2,64.8z M10.2,61.4c0,0.2,0.1,0.3,0.2,0.5s0.3,0.2,0.5,0.2h10.8c0.2,0,0.3-0.1,0.5-0.2
			c0.1-0.1,0.2-0.3,0.2-0.5V46.5c0-0.2-0.1-0.3-0.2-0.5c-0.1-0.1-0.3-0.2-0.5-0.2H10.9c-0.2,0-0.3,0.1-0.5,0.2s-0.2,0.3-0.2,0.5
			V61.4z M14.3,43.5c0,0.2,0.1,0.3,0.3,0.3H18c0.2,0,0.3-0.1,0.3-0.3c0-0.2-0.1-0.3-0.3-0.3h-3.4C14.4,43.1,14.3,43.3,14.3,43.5z
			 M15.1,63.6c-0.3,0.3-0.5,0.7-0.5,1.2c0,0.5,0.2,0.9,0.5,1.2c0.3,0.3,0.7,0.5,1.2,0.5c0.5,0,0.9-0.2,1.2-0.5
			c0.3-0.3,0.5-0.7,0.5-1.2c0-0.5-0.2-0.9-0.5-1.2c-0.3-0.3-0.7-0.5-1.2-0.5C15.9,63.1,15.5,63.3,15.1,63.6z"/>
		<path fill="#EFEFEB" d="M48.8,59.8H43v5.8h-1.5v-5.8h-5.8v-1.5h5.8v-5.8H43v5.8h5.8V59.8z"/>
		<path fill="#EFEFEB" d="M64.8,50.9c0,1.5-0.4,3.1-1.3,4.8l-5.9,11.9h-1.6L61.2,57c-0.8,0.4-1.7,0.5-2.7,0.5
			c-1.2,0-2.3-0.3-3.2-0.8c-0.9-0.6-1.6-1.3-2-2.3c-0.5-1-0.7-2.1-0.7-3.3c0-0.9,0.1-1.8,0.4-2.6c0.3-0.8,0.7-1.5,1.2-2.1
			c0.5-0.6,1.2-1.1,1.9-1.4c0.8-0.3,1.6-0.5,2.5-0.5c1.3,0,2.3,0.3,3.3,0.8c0.9,0.5,1.6,1.3,2.1,2.3C64.5,48.6,64.8,49.7,64.8,50.9z
			 M63.1,51c0-1-0.2-1.9-0.5-2.7S61.7,47,61,46.5c-0.7-0.4-1.5-0.6-2.3-0.6c-1.4,0-2.4,0.5-3.2,1.4c-0.8,0.9-1.2,2.2-1.2,3.7
			c0,0.9,0.2,1.8,0.5,2.6c0.3,0.8,0.8,1.4,1.5,1.8c0.7,0.5,1.5,0.7,2.4,0.7c0.9,0,1.7-0.2,2.3-0.6c0.7-0.4,1.2-1,1.6-1.8
			C62.9,52.9,63.1,52,63.1,51z"/>
		<path fill="#EFEFEB" d="M81.5,61.1c0,0.9-0.1,1.8-0.4,2.6s-0.7,1.5-1.2,2.1c-0.5,0.6-1.2,1.1-1.9,1.4c-0.8,0.3-1.6,0.5-2.6,0.5
			c-1.9,0-3.4-0.6-4.5-1.8c-1.1-1.2-1.6-2.7-1.6-4.6c0-0.7,0.1-1.5,0.3-2.2s0.5-1.6,1-2.6l5.9-11.9h1.6l-5.3,10.6
			c0.8-0.4,1.6-0.5,2.7-0.5c1.2,0,2.3,0.3,3.2,0.8c0.9,0.6,1.6,1.3,2,2.3C81.2,58.8,81.5,59.9,81.5,61.1z M79.8,61.2
			c0-1.5-0.4-2.7-1.2-3.6s-1.9-1.5-3.3-1.5c-1.3,0-2.4,0.5-3.2,1.4c-0.8,0.9-1.2,2.2-1.2,3.7c0,1.5,0.4,2.8,1.2,3.7
			c0.8,0.9,1.9,1.4,3.2,1.4c0.9,0,1.7-0.2,2.3-0.6c0.7-0.4,1.2-1,1.6-1.8C79.6,63.1,79.8,62.2,79.8,61.2z"/>
		<path fill="#EFEFEB" d="M98,67.5H85.9v-1.4L95.1,54c0.9-1.1,1.3-2.3,1.3-3.6c0-0.9-0.2-1.7-0.5-2.4c-0.4-0.7-0.9-1.2-1.5-1.6
			c-0.7-0.4-1.4-0.6-2.3-0.6c-1.3,0-2.3,0.4-3.2,1.1s-1.2,1.9-1.2,3.4h-1.6c0-1.8,0.5-3.2,1.6-4.3s2.6-1.7,4.4-1.7
			c0.9,0,1.8,0.1,2.5,0.4c0.7,0.3,1.4,0.7,1.9,1.2c0.5,0.5,0.9,1.1,1.2,1.9s0.4,1.6,0.4,2.5c0,0.8-0.1,1.6-0.4,2.3
			c-0.2,0.7-0.6,1.4-1.2,2.1l-8.6,11.2H98V67.5z"/>
		<path fill="#EFEFEB" d="M123.1,46.1L115,67.5h-1.7l8.1-21.5h-8.7v3.6h-1.7v-5h12V46.1z"/>
		<path fill="#EFEFEB" d="M139.6,46.1l-8.1,21.5h-1.7l8.1-21.5h-8.7v3.6h-1.7v-5h12V46.1z"/>
		<path fill="#EFEFEB" d="M164.1,60c0,1.4-0.1,2.6-0.3,3.5c-0.2,1-0.7,1.8-1.4,2.6c-1.1,1.1-2.6,1.6-4.4,1.6c-1.9,0-3.4-0.5-4.4-1.5
			c-0.9-0.9-1.4-2.1-1.5-3.7h1.6c0.2,1.3,0.6,2.2,1.3,2.9c0.7,0.6,1.7,1,3,1c0.6,0,1.2-0.1,1.8-0.3c0.6-0.2,1-0.5,1.4-0.8
			c0.6-0.6,1-1.3,1.1-2.1c0.2-0.8,0.2-1.8,0.2-3c0-1.8-0.3-3.3-0.9-4.4c-0.6-1.1-1.7-1.7-3.4-1.7c-1,0-1.9,0.2-2.7,0.6
			c-0.7,0.4-1.2,1-1.5,1.8h-1.4V44.6h11v1.4h-9.5v8.1c1-1.1,2.4-1.7,4.3-1.7c1.7,0,3,0.5,3.9,1.4c0.7,0.7,1.2,1.6,1.5,2.7
			C164,57.6,164.1,58.7,164.1,60z"/>
		<path fill="#EFEFEB" d="M180.7,60c0,1.4-0.1,2.6-0.3,3.5c-0.2,1-0.7,1.8-1.4,2.6c-1.1,1.1-2.6,1.6-4.4,1.6c-1.9,0-3.4-0.5-4.4-1.5
			c-0.9-0.9-1.4-2.1-1.5-3.7h1.6c0.2,1.3,0.6,2.2,1.3,2.9c0.7,0.6,1.7,1,3,1c0.6,0,1.2-0.1,1.8-0.3c0.6-0.2,1-0.5,1.4-0.8
			c0.6-0.6,1-1.3,1.1-2.1c0.2-0.8,0.2-1.8,0.2-3c0-1.8-0.3-3.3-0.9-4.4c-0.6-1.1-1.7-1.7-3.4-1.7c-1,0-1.9,0.2-2.7,0.6
			c-0.7,0.4-1.2,1-1.5,1.8h-1.4V44.6h11v1.4h-9.5v8.1c1-1.1,2.4-1.7,4.3-1.7c1.7,0,3,0.5,3.9,1.4c0.7,0.7,1.2,1.6,1.5,2.7
			C180.6,57.6,180.7,58.7,180.7,60z"/>
		<path fill="#EFEFEB" d="M197.5,61.4c0,1.2-0.3,2.3-0.9,3.3c-0.6,1-1.4,1.7-2.3,2.3s-2.1,0.8-3.3,0.8c-1.2,0-2.3-0.3-3.3-0.8
			s-1.8-1.3-2.3-2.3c-0.6-1-0.9-2.1-0.9-3.3c0-1.3,0.3-2.4,1-3.4s1.5-1.8,2.7-2.4c-1-0.6-1.8-1.3-2.4-2.2c-0.5-0.9-0.8-1.9-0.8-3.1
			c0-0.8,0.1-1.6,0.4-2.3c0.3-0.7,0.7-1.4,1.2-1.9c0.5-0.5,1.2-1,1.9-1.3s1.6-0.5,2.4-0.5c1.2,0,2.2,0.3,3.1,0.8
			c0.9,0.5,1.6,1.2,2.1,2.1c0.5,0.9,0.8,1.9,0.8,3c0,1.2-0.3,2.2-0.8,3.1c-0.5,0.9-1.3,1.6-2.3,2.1c0.7,0.4,1.4,0.9,1.9,1.4
			s1,1.2,1.2,1.9S197.5,60.5,197.5,61.4z M195.9,61.4c0-0.7-0.1-1.4-0.4-2c-0.2-0.6-0.6-1.1-1-1.6s-1-0.8-1.6-1.1
			c-0.6-0.3-1.2-0.4-2-0.4c-0.9,0-1.7,0.2-2.5,0.7c-0.7,0.4-1.3,1-1.8,1.8c-0.4,0.8-0.6,1.6-0.6,2.5c0,1.4,0.5,2.5,1.4,3.5
			c0.9,0.9,2.1,1.4,3.5,1.4c0.9,0,1.7-0.2,2.5-0.6c0.8-0.4,1.4-1,1.8-1.8C195.7,63.1,195.9,62.3,195.9,61.4z M195.4,50.4
			c0-0.9-0.2-1.6-0.6-2.3c-0.4-0.7-0.9-1.2-1.6-1.6c-0.7-0.4-1.4-0.6-2.3-0.6c-0.9,0-1.6,0.2-2.3,0.6c-0.7,0.4-1.2,0.9-1.5,1.6
			c-0.4,0.7-0.5,1.5-0.5,2.3c0,1.3,0.4,2.4,1.2,3.3c0.8,0.8,1.9,1.3,3.2,1.3c0.9,0,1.6-0.2,2.3-0.6c0.7-0.4,1.2-0.9,1.6-1.6
			C195.2,52.1,195.4,51.3,195.4,50.4z"/>
		<path fill="#EFEFEB" d="M214,61.4c0,1.2-0.3,2.3-0.9,3.3c-0.6,1-1.4,1.7-2.3,2.3s-2.1,0.8-3.3,0.8c-1.2,0-2.3-0.3-3.3-0.8
			s-1.8-1.3-2.3-2.3c-0.6-1-0.9-2.1-0.9-3.3c0-1.3,0.3-2.4,1-3.4s1.5-1.8,2.7-2.4c-1-0.6-1.8-1.3-2.4-2.2c-0.5-0.9-0.8-1.9-0.8-3.1
			c0-0.8,0.1-1.6,0.4-2.3c0.3-0.7,0.7-1.4,1.2-1.9c0.5-0.5,1.2-1,1.9-1.3s1.6-0.5,2.4-0.5c1.2,0,2.2,0.3,3.1,0.8
			c0.9,0.5,1.6,1.2,2.1,2.1c0.5,0.9,0.8,1.9,0.8,3c0,1.2-0.3,2.2-0.8,3.1c-0.5,0.9-1.3,1.6-2.3,2.1c0.7,0.4,1.4,0.9,1.9,1.4
			s1,1.2,1.2,1.9S214,60.5,214,61.4z M212.4,61.4c0-0.7-0.1-1.4-0.4-2c-0.2-0.6-0.6-1.1-1-1.6s-1-0.8-1.6-1.1
			c-0.6-0.3-1.2-0.4-2-0.4c-0.9,0-1.7,0.2-2.5,0.7c-0.7,0.4-1.3,1-1.8,1.8c-0.4,0.8-0.6,1.6-0.6,2.5c0,1.4,0.5,2.5,1.4,3.5
			c0.9,0.9,2.1,1.4,3.5,1.4c0.9,0,1.7-0.2,2.5-0.6c0.8-0.4,1.4-1,1.8-1.8C212.2,63.1,212.4,62.3,212.4,61.4z M211.9,50.4
			c0-0.9-0.2-1.6-0.6-2.3c-0.4-0.7-0.9-1.2-1.6-1.6c-0.7-0.4-1.4-0.6-2.3-0.6c-0.9,0-1.6,0.2-2.3,0.6c-0.7,0.4-1.2,0.9-1.5,1.6
			c-0.4,0.7-0.5,1.5-0.5,2.3c0,1.3,0.4,2.4,1.2,3.3c0.8,0.8,1.9,1.3,3.2,1.3c0.9,0,1.6-0.2,2.3-0.6c0.7-0.4,1.2-0.9,1.6-1.6
			C211.7,52.1,211.9,51.3,211.9,50.4z"/>
		<path fill="#EFEFEB" d="M239.2,63.8h-3.1v3.8h-1.6v-3.8h-9.1v-1.4l8.4-17.7h1.7l-8.4,17.7h7.3v-7.3h1.6v7.3h3.1V63.8z"/>
		<path fill="#EFEFEB" d="M254.8,61.6c0,1.2-0.3,2.2-0.8,3.2c-0.5,0.9-1.2,1.6-2.1,2.2c-0.9,0.5-2,0.8-3.1,0.8
			c-1.2,0-2.2-0.3-3.1-0.8c-0.9-0.5-1.6-1.2-2.1-2.2c-0.5-0.9-0.8-2-0.8-3.2V50.6c0-0.9,0.1-1.7,0.4-2.5c0.3-0.8,0.7-1.4,1.2-2
			s1.2-1,1.9-1.3c0.7-0.3,1.5-0.4,2.4-0.4c0.9,0,1.7,0.1,2.4,0.4c0.7,0.3,1.4,0.7,1.9,1.3c0.5,0.5,0.9,1.2,1.2,2
			c0.3,0.8,0.4,1.6,0.4,2.5V61.6z M253.2,61.5V50.7c0-1.4-0.4-2.6-1.2-3.5c-0.8-0.9-1.8-1.4-3.2-1.4c-1.4,0-2.4,0.5-3.2,1.4
			c-0.8,0.9-1.2,2.1-1.2,3.5v10.7c0,1.4,0.4,2.6,1.2,3.5c0.8,0.9,1.8,1.4,3.2,1.4c1.4,0,2.5-0.5,3.2-1.4
			C252.8,64,253.2,62.9,253.2,61.5z"/>
		<path fill="#EFEFEB" d="M271.4,61.6c0,1.2-0.3,2.2-0.8,3.2c-0.5,0.9-1.2,1.6-2.1,2.2c-0.9,0.5-2,0.8-3.1,0.8
			c-1.2,0-2.2-0.3-3.1-0.8c-0.9-0.5-1.6-1.2-2.1-2.2c-0.5-0.9-0.8-2-0.8-3.2V50.6c0-0.9,0.1-1.7,0.4-2.5c0.3-0.8,0.7-1.4,1.2-2
			s1.2-1,1.9-1.3c0.7-0.3,1.5-0.4,2.4-0.4c0.9,0,1.7,0.1,2.4,0.4c0.7,0.3,1.4,0.7,1.9,1.3c0.5,0.5,0.9,1.2,1.2,2
			c0.3,0.8,0.4,1.6,0.4,2.5V61.6z M269.7,61.5V50.7c0-1.4-0.4-2.6-1.2-3.5c-0.8-0.9-1.8-1.4-3.2-1.4c-1.4,0-2.4,0.5-3.2,1.4
			c-0.8,0.9-1.2,2.1-1.2,3.5v10.7c0,1.4,0.4,2.6,1.2,3.5c0.8,0.9,1.8,1.4,3.2,1.4c1.4,0,2.5-0.5,3.2-1.4
			C269.3,64,269.7,62.9,269.7,61.5z"/>
	</g>
</g>
<g>
	<g>
		<path fill="#FFFFFF" d="M312.4,24.2V5.6c0-1.5,0.5-2.9,1.6-3.9c1.1-1.1,2.4-1.6,3.9-1.6h18.6c1.5,0,2.9,0.5,3.9,1.6
			c1.1,1.1,1.6,2.4,1.6,3.9v18.6c0,1.5-0.5,2.9-1.6,3.9c-1.1,1.1-2.4,1.6-3.9,1.6H318c-1.5,0-2.9-0.5-3.9-1.6S312.4,25.7,312.4,24.2
			z M317.3,21.7c1.9,1.2,4,1.8,6.2,1.8c1.4,0,2.8-0.2,4.1-0.7c1.3-0.5,2.4-1.1,3.3-1.8c0.9-0.8,1.7-1.7,2.3-2.7c0.7-1,1.1-2,1.5-3.1
			c0.3-1.1,0.5-2.2,0.5-3.3c0-0.2,0-0.4,0-0.5c0.8-0.6,1.5-1.3,2-2.1c-0.7,0.3-1.5,0.5-2.3,0.7c0.9-0.5,1.5-1.3,1.8-2.3
			c-0.8,0.5-1.7,0.8-2.6,1c-0.8-0.9-1.8-1.3-3-1.3c-1.1,0-2.1,0.4-2.9,1.2c-0.8,0.8-1.2,1.8-1.2,2.9c0,0.4,0,0.7,0.1,0.9
			c-1.7-0.1-3.2-0.5-4.7-1.3c-1.5-0.7-2.7-1.8-3.7-3c-0.4,0.6-0.6,1.3-0.6,2.1c0,1.5,0.6,2.6,1.8,3.4c-0.6,0-1.3-0.2-1.9-0.5v0
			c0,1,0.3,1.8,1,2.6c0.6,0.8,1.4,1.2,2.4,1.4c-0.4,0.1-0.7,0.2-1,0.2c-0.2,0-0.4,0-0.8-0.1c0.3,0.8,0.8,1.5,1.4,2
			c0.7,0.5,1.5,0.8,2.4,0.8c-1.5,1.2-3.2,1.7-5.1,1.7C318,21.8,317.6,21.8,317.3,21.7z"/>
		<path fill="#EFEFEB" d="M370.5,27.3h-1.6v-17l-6.2,14.1h-1.6l-6.4-14.1v17h-1.6V6.7h1.6l7.2,15.9l7-15.9h1.6V27.3z"/>
		<path fill="#EFEFEB" d="M389.4,27.3h-12.5V6.7h1.6v19.2h10.9V27.3z"/>
		<path fill="#EFEFEB" d="M406.7,21.4c-0.2,1.2-0.7,2.3-1.3,3.2c-0.6,0.9-1.5,1.6-2.4,2.1s-2.1,0.7-3.3,0.7c-1,0-1.9-0.2-2.8-0.6
			c-0.9-0.4-1.7-0.9-2.3-1.6c-0.6-0.6-1.1-1.3-1.3-1.9c-0.3-0.7-0.4-1.5-0.5-2.3c-0.1-0.9-0.1-2.2-0.1-4.1s0-3.2,0.1-4.1
			c0.1-0.9,0.2-1.7,0.5-2.3c0.3-0.7,0.7-1.3,1.3-1.9c0.7-0.7,1.4-1.2,2.3-1.6c0.9-0.4,1.8-0.6,2.8-0.6c1.2,0,2.3,0.2,3.3,0.7
			c1,0.5,1.8,1.2,2.4,2.1c0.6,0.9,1.1,2,1.3,3.2h-1.6c-0.3-1.4-0.9-2.6-1.9-3.4s-2.1-1.2-3.5-1.2c-0.7,0-1.4,0.1-2.1,0.4
			c-0.7,0.3-1.3,0.7-1.8,1.2c-0.4,0.4-0.7,0.7-0.9,1.1c-0.2,0.4-0.4,0.9-0.5,1.5c-0.1,0.6-0.2,1.3-0.2,2.1s0,1.7,0,2.8
			c0,1.6,0,2.9,0.1,3.7c0.1,0.9,0.2,1.6,0.4,2.2c0.2,0.6,0.6,1.1,1,1.6c0.5,0.5,1.1,0.9,1.8,1.2c0.7,0.3,1.4,0.4,2.1,0.4
			c0.9,0,1.7-0.2,2.5-0.6c0.7-0.4,1.4-0.9,1.9-1.6s0.9-1.5,1.1-2.5H406.7z"/>
		<path fill="#EFEFEB" d="M423.8,31.9h-14.9v-1.1h14.9V31.9z"/>
		<path fill="#EFEFEB" d="M437.8,6.7l-6.1,12.1v8.5h-1.6v-8.5L424,6.7h1.7l5.2,10.4l5.1-10.4H437.8z"/>
		<path fill="#EFEFEB" d="M451.2,20.6h-9.7c0,1.8,0.4,3.1,1.2,4.1c0.8,0.9,1.9,1.4,3.4,1.4c0.8,0,1.5-0.1,2.1-0.4s1.2-0.7,1.8-1.3
			l1.1,0.9c-0.7,0.7-1.5,1.3-2.3,1.6c-0.8,0.3-1.7,0.5-2.8,0.5c-1.3,0-2.4-0.3-3.2-0.8c-0.9-0.5-1.6-1.3-2-2.4
			c-0.5-1.1-0.7-2.4-0.7-3.9c0-1.1,0.1-2.1,0.4-3c0.3-0.9,0.6-1.6,1.1-2.2c0.5-0.6,1.1-1.1,1.8-1.4c0.7-0.3,1.5-0.5,2.3-0.5
			c0.9,0,1.7,0.2,2.3,0.5c0.7,0.3,1.3,0.7,1.8,1.3c0.5,0.6,0.9,1.3,1.1,2.1c0.3,0.8,0.4,1.8,0.4,2.9V20.6z M449.8,19.4
			c0-0.7-0.1-1.2-0.1-1.5s-0.2-0.7-0.4-1.1c-0.3-0.7-0.8-1.3-1.4-1.7c-0.7-0.4-1.4-0.6-2.2-0.6c-0.8,0-1.5,0.2-2.2,0.6
			c-0.7,0.4-1.1,1-1.4,1.7c-0.2,0.5-0.3,0.8-0.4,1.2c-0.1,0.3-0.1,0.8-0.1,1.4H449.8z"/>
		<path fill="#EFEFEB" d="M465.9,23.3c0,0.8-0.2,1.6-0.7,2.2s-1.1,1.1-2,1.4c-0.8,0.3-1.8,0.5-3,0.5c-2.4,0-4.3-0.7-5.7-2l1-1
			c1.1,1.1,2.6,1.7,4.6,1.7c1.4,0,2.4-0.2,3.1-0.7c0.7-0.5,1.1-1.2,1.1-2.1c0-0.7-0.2-1.3-0.6-1.6c-0.4-0.4-1.1-0.6-2-0.7l-2.3-0.2
			c-2.8-0.2-4.2-1.4-4.2-3.6c0-0.8,0.2-1.5,0.6-2.1c0.4-0.6,1-1.1,1.7-1.4c0.8-0.3,1.6-0.5,2.7-0.5c1,0,1.9,0.1,2.7,0.4
			c0.8,0.3,1.6,0.6,2.2,1.1l-1,1c-1.1-0.8-2.4-1.2-3.9-1.2c-1.1,0-2,0.2-2.6,0.7c-0.6,0.5-0.9,1.1-0.9,2c0,0.7,0.2,1.3,0.7,1.7
			c0.5,0.4,1.2,0.6,2.2,0.7l2.2,0.2c1.3,0.1,2.3,0.4,3,1C465.5,21.2,465.9,22.1,465.9,23.3z"/>
		<path fill="#FFFFFF" d="M312.4,62.9V46c0-1.4,0.5-2.6,1.5-3.6c1-1,2.2-1.5,3.6-1.5h16.9c1.4,0,2.6,0.5,3.6,1.5
			c1,1,1.5,2.2,1.5,3.6v16.9c0,1.4-0.5,2.6-1.5,3.6c-1,1-2.2,1.5-3.6,1.5h-3.4V57.3h3.6l0.5-3.9h-4.1v-2.5c0-0.6,0.2-1.1,0.5-1.5
			c0.3-0.3,0.9-0.5,1.7-0.5l2.3,0v-3.6c-1.1-0.1-2.2-0.2-3.2-0.2c-1.6,0-2.9,0.5-3.8,1.4c-1,0.9-1.4,2.3-1.4,4v2.9h-3.9v3.9h3.9V68
			h-9.6c-1.4,0-2.6-0.5-3.6-1.5S312.4,64.3,312.4,62.9z"/>
		<path fill="#EFEFEB" d="M367.8,65.7h-1.6v-17L360,62.8h-1.6l-6.4-14.1v17h-1.6V45.1h1.6l7.2,15.9l7-15.9h1.6V65.7z"/>
		<path fill="#EFEFEB" d="M386.7,65.7h-12.5V45.1h1.6v19.2h10.9V65.7z"/>
		<path fill="#EFEFEB" d="M404,59.9c-0.2,1.2-0.7,2.3-1.3,3.2c-0.6,0.9-1.5,1.6-2.4,2.1s-2.1,0.7-3.3,0.7c-1,0-1.9-0.2-2.8-0.6
			c-0.9-0.4-1.7-0.9-2.3-1.6c-0.6-0.6-1.1-1.3-1.3-1.9c-0.3-0.7-0.4-1.5-0.5-2.3c-0.1-0.9-0.1-2.2-0.1-4.1s0-3.2,0.1-4.1
			c0.1-0.9,0.2-1.7,0.5-2.3c0.3-0.7,0.7-1.3,1.3-1.9c0.7-0.7,1.4-1.2,2.3-1.6C395,45.1,396,45,397,45c1.2,0,2.3,0.2,3.3,0.7
			c1,0.5,1.8,1.2,2.4,2.1c0.6,0.9,1.1,2,1.3,3.2h-1.6c-0.3-1.4-0.9-2.6-1.9-3.4s-2.1-1.2-3.5-1.2c-0.7,0-1.4,0.1-2.1,0.4
			c-0.7,0.3-1.3,0.7-1.8,1.2c-0.4,0.4-0.7,0.7-0.9,1.1c-0.2,0.4-0.4,0.9-0.5,1.5c-0.1,0.6-0.2,1.3-0.2,2.1s0,1.7,0,2.8
			c0,1.6,0,2.9,0.1,3.7c0.1,0.9,0.2,1.6,0.4,2.2c0.2,0.6,0.6,1.1,1,1.6c0.5,0.5,1.1,0.9,1.8,1.2c0.7,0.3,1.4,0.4,2.1,0.4
			c0.9,0,1.7-0.2,2.5-0.6c0.7-0.4,1.4-0.9,1.9-1.6s0.9-1.5,1.1-2.5H404z"/>
		<path fill="#EFEFEB" d="M411.1,65.7h-2.1v-2.1h2.1V65.7z"/>
		<path fill="#EFEFEB" d="M430.8,65.7h-1.7l-1.8-5h-9.6l-1.8,5h-1.7l7.6-20.6h1.4L430.8,65.7z M426.9,59.3l-4.3-12.1l-4.3,12.1
			H426.9z"/>
		<path fill="#EFEFEB" d="M454,65.7h-1.5v-8.6c0-1.3-0.3-2.4-1-3.1c-0.7-0.7-1.6-1.1-2.8-1.1c-1.2,0-2.2,0.4-2.9,1.1
			c-0.7,0.7-1.1,1.7-1.1,2.8v8.9h-1.5v-8.6c0-1.3-0.3-2.4-1-3.1c-0.7-0.7-1.6-1.1-2.9-1.1c-0.8,0-1.5,0.2-2.1,0.5
			c-0.6,0.3-1,0.8-1.3,1.4s-0.5,1.4-0.5,2.3v8.6h-1.5V51.8h1.5v1.7c1-1.2,2.4-1.8,4.1-1.8c0.7,0,1.3,0.1,1.9,0.3s1.1,0.5,1.5,0.8
			c0.4,0.4,0.8,0.8,1.1,1.4c1.1-1.7,2.7-2.5,4.7-2.5c0.8,0,1.5,0.1,2.1,0.3c0.6,0.2,1.1,0.6,1.6,1c1,0.9,1.5,2.2,1.5,3.9V65.7z"/>
		<path fill="#EFEFEB" d="M479.4,65.7H478v-8.6c0-1.3-0.3-2.4-1-3.1c-0.7-0.7-1.6-1.1-2.8-1.1c-1.2,0-2.2,0.4-2.9,1.1
			c-0.7,0.7-1.1,1.7-1.1,2.8v8.9h-1.5v-8.6c0-1.3-0.3-2.4-1-3.1c-0.7-0.7-1.6-1.1-2.9-1.1c-0.8,0-1.5,0.2-2.1,0.5
			c-0.6,0.3-1,0.8-1.3,1.4s-0.5,1.4-0.5,2.3v8.6h-1.5V51.8h1.5v1.7c1-1.2,2.4-1.8,4.1-1.8c0.7,0,1.3,0.1,1.9,0.3s1.1,0.5,1.5,0.8
			c0.4,0.4,0.8,0.8,1.1,1.4c1.1-1.7,2.7-2.5,4.7-2.5c0.8,0,1.5,0.1,2.1,0.3c0.6,0.2,1.1,0.6,1.6,1c1,0.9,1.5,2.2,1.5,3.9V65.7z"/>
		<path fill="#EFEFEB" d="M494.5,65.7H493v-1.4c-0.6,0.6-1.2,1-1.8,1.2s-1.4,0.3-2.4,0.3c-0.7,0-1.3,0-1.8-0.1
			c-0.5-0.1-1-0.2-1.3-0.4c-0.4-0.2-0.7-0.4-1-0.7c-0.7-0.7-1-1.6-1-2.7c0-1.3,0.4-2.3,1.3-3c0.9-0.7,2-1.1,3.6-1.1h4.5v-1.6
			c0-1.1-0.3-2-0.9-2.6s-1.6-0.8-3-0.8c-1,0-1.8,0.1-2.3,0.4s-1.1,0.7-1.5,1.4l-1.1-0.9c0.4-0.6,0.8-1,1.3-1.3
			c0.5-0.3,1-0.5,1.6-0.7c0.6-0.1,1.3-0.2,2-0.2c3.6,0,5.4,1.5,5.4,4.6V65.7z M493,60.9v-1.8h-4.3c-2.4,0-3.6,0.9-3.6,2.8
			c0,0.9,0.3,1.6,0.9,2c0.6,0.4,1.5,0.7,2.8,0.7c0.8,0,1.4-0.1,2-0.2s1.1-0.4,1.5-0.9C492.8,63,493,62.2,493,60.9z"/>
		<path fill="#EFEFEB" d="M510.8,65.7h-1.5v-8.6c0-1.3-0.3-2.4-1-3.1c-0.7-0.7-1.6-1.1-2.9-1.1c-0.8,0-1.5,0.2-2.1,0.5
			c-0.6,0.3-1,0.8-1.3,1.4s-0.5,1.4-0.5,2.3v8.6H500V51.8h1.5v1.7c1-1.2,2.4-1.8,4.1-1.8c1.6,0,2.8,0.4,3.7,1.3
			c1,0.9,1.4,2.2,1.4,3.9V65.7z"/>
	</g>
</g>
</svg>
