<!-- Generator: Adobe Illustrator 18.0.0, SVG Export Plug-In  -->
<svg version="1.1"
	 xmlns="http://www.w3.org/2000/svg" xmlns:xlink="http://www.w3.org/1999/xlink" xmlns:a="http://ns.adobe.com/AdobeSVGViewerExtensions/3.0/"
	 x="0px" y="0px" width="331.4px" height="16.9px" viewBox="0 0 331.4 16.9" enable-background="new 0 0 331.4 16.9"
	 xml:space="preserve">
<defs>
</defs>
<g>
	<g>
		<path fill="#FFFFFF" d="M0,5.2c0-0.7,0.2-1.3,0.6-2C1,2.4,1.3,2,1.7,1.8c0.2-0.1,0.4-0.2,0.7-0.2C2.8,1.5,3,1.5,3.2,1.5
			c0.1,0,0.2,0,0.2,0c0.1,0,0.3,0.3,0.6,0.8c0.1,0.1,0.2,0.3,0.3,0.6c0.1,0.3,0.3,0.5,0.4,0.7C4.8,3.8,5,4,5.1,4.2
			c0,0,0.1,0.1,0.2,0.3s0.2,0.3,0.2,0.4c0.1,0.1,0.1,0.2,0.1,0.3c0,0.1-0.1,0.3-0.3,0.5S4.8,6.1,4.6,6.3C4.3,6.5,4.1,6.7,3.9,6.9
			C3.7,7.1,3.6,7.2,3.6,7.4c0,0.1,0,0.1,0.1,0.2c0,0.1,0.1,0.2,0.1,0.2c0,0.1,0.1,0.1,0.2,0.3C4,8.2,4,8.3,4,8.3
			c0.6,1,1.2,1.8,1.9,2.6c0.7,0.7,1.6,1.3,2.6,1.9c0,0,0.1,0,0.2,0.1C8.8,13,8.9,13,8.9,13c0.1,0,0.1,0.1,0.2,0.1
			c0.1,0,0.2,0.1,0.2,0.1c0.1,0,0.3-0.1,0.5-0.3c0.2-0.2,0.4-0.4,0.6-0.7c0.2-0.2,0.4-0.5,0.6-0.7c0.2-0.2,0.4-0.3,0.5-0.3
			c0.1,0,0.2,0,0.3,0.1s0.2,0.1,0.4,0.2s0.2,0.2,0.3,0.2c0.2,0.1,0.4,0.2,0.6,0.3s0.4,0.2,0.7,0.4c0.3,0.1,0.4,0.2,0.6,0.3
			c0.5,0.3,0.8,0.4,0.8,0.6c0,0.1,0,0.1,0,0.2c0,0.2,0,0.5-0.1,0.8c-0.1,0.3-0.1,0.6-0.2,0.7c-0.2,0.4-0.6,0.7-1.3,1.2
			c-0.7,0.4-1.4,0.6-2,0.6c-0.2,0-0.4,0-0.6,0s-0.4-0.1-0.6-0.1c-0.2-0.1-0.4-0.1-0.5-0.2c-0.1,0-0.3-0.1-0.6-0.2
			C9,16.1,8.8,16.1,8.8,16c-0.7-0.3-1.3-0.6-1.9-0.9C5.9,14.6,5,13.8,4,12.8s-1.8-1.9-2.3-2.9C1.3,9.4,1,8.7,0.8,8
			c0-0.1-0.1-0.2-0.2-0.5C0.4,7.2,0.4,7,0.3,6.9c0-0.1-0.1-0.3-0.2-0.5C0.1,6.1,0.1,5.9,0,5.7C0,5.5,0,5.3,0,5.2z"/>
		<path fill="#EFEFEB" d="M29.4,12h-3.6v3.6h-0.9V12h-3.6v-0.9h3.6V7.5h0.9v3.6h3.6V12z"/>
		<path fill="#EFEFEB" d="M39.3,6.5c0,0.9-0.3,1.9-0.8,3l-3.6,7.4h-1l3.3-6.6c-0.5,0.2-1,0.3-1.7,0.3c-0.8,0-1.4-0.2-2-0.5
			s-1-0.8-1.3-1.4c-0.3-0.6-0.4-1.3-0.4-2C31.7,6,31.8,5.5,32,5c0.2-0.5,0.4-0.9,0.7-1.3s0.7-0.7,1.2-0.9c0.5-0.2,1-0.3,1.6-0.3
			c0.8,0,1.5,0.2,2,0.5c0.6,0.3,1,0.8,1.3,1.4C39.1,5,39.3,5.7,39.3,6.5z M38.2,6.5c0-0.6-0.1-1.2-0.3-1.6s-0.5-0.8-1-1.1
			c-0.4-0.3-0.9-0.4-1.4-0.4c-0.8,0-1.5,0.3-2,0.9c-0.5,0.6-0.7,1.3-0.7,2.3c0,0.6,0.1,1.1,0.3,1.6C33.3,8.6,33.6,9,34,9.3
			c0.4,0.3,0.9,0.4,1.5,0.4c0.5,0,1-0.1,1.4-0.4c0.4-0.3,0.7-0.6,1-1.1S38.2,7.2,38.2,6.5z"/>
		<path fill="#EFEFEB" d="M49.6,12.8c0,0.6-0.1,1.1-0.2,1.6c-0.2,0.5-0.4,0.9-0.7,1.3c-0.3,0.4-0.7,0.7-1.2,0.9
			c-0.5,0.2-1,0.3-1.6,0.3c-1.2,0-2.1-0.4-2.8-1.1c-0.7-0.7-1-1.7-1-2.9c0-0.5,0.1-0.9,0.2-1.4c0.1-0.5,0.3-1,0.6-1.6l3.6-7.4h1
			l-3.3,6.6c0.5-0.2,1-0.3,1.7-0.3c0.8,0,1.4,0.2,2,0.5c0.6,0.4,1,0.8,1.3,1.4C49.5,11.4,49.6,12,49.6,12.8z M48.6,12.9
			c0-0.9-0.2-1.7-0.7-2.3s-1.2-0.9-2-0.9c-0.8,0-1.5,0.3-2,0.9c-0.5,0.6-0.7,1.3-0.7,2.3c0,1,0.2,1.7,0.7,2.3c0.5,0.6,1.2,0.9,2,0.9
			c0.5,0,1-0.1,1.4-0.4c0.4-0.3,0.7-0.6,1-1.1C48.5,14,48.6,13.5,48.6,12.9z"/>
		<path fill="#EFEFEB" d="M59.9,16.8h-7.5v-0.9L58,8.4c0.5-0.7,0.8-1.4,0.8-2.2c0-0.6-0.1-1.1-0.3-1.5c-0.2-0.4-0.5-0.8-0.9-1
			c-0.4-0.2-0.9-0.4-1.5-0.4c-0.8,0-1.5,0.2-2,0.7s-0.8,1.2-0.8,2.1h-1c0-1.1,0.3-2,1-2.7c0.7-0.7,1.6-1,2.7-1
			c0.6,0,1.1,0.1,1.6,0.3s0.9,0.4,1.2,0.7c0.3,0.3,0.6,0.7,0.7,1.2s0.3,1,0.3,1.5c0,0.5-0.1,1-0.2,1.4c-0.1,0.4-0.4,0.9-0.8,1.3
			l-5.3,7h6.3V16.8z"/>
		<path fill="#EFEFEB" d="M75.2,12.8c0,0.6-0.1,1.1-0.2,1.6c-0.2,0.5-0.4,0.9-0.7,1.3c-0.3,0.4-0.7,0.7-1.2,0.9
			c-0.5,0.2-1,0.3-1.6,0.3c-1.2,0-2.1-0.4-2.8-1.1c-0.7-0.7-1-1.7-1-2.9c0-0.5,0.1-0.9,0.2-1.4c0.1-0.5,0.3-1,0.6-1.6l3.6-7.4h1
			l-3.3,6.6c0.5-0.2,1-0.3,1.7-0.3c0.8,0,1.4,0.2,2,0.5c0.6,0.4,1,0.8,1.3,1.4C75,11.4,75.2,12,75.2,12.8z M74.1,12.9
			c0-0.9-0.2-1.7-0.7-2.3s-1.2-0.9-2-0.9c-0.8,0-1.5,0.3-2,0.9c-0.5,0.6-0.7,1.3-0.7,2.3c0,1,0.2,1.7,0.7,2.3c0.5,0.6,1.2,0.9,2,0.9
			c0.5,0,1-0.1,1.4-0.4c0.4-0.3,0.7-0.6,1-1.1C74,14,74.1,13.5,74.1,12.9z"/>
		<path fill="#EFEFEB" d="M90.9,14.5H89v2.3h-1v-2.3h-5.6v-0.9l5.2-11h1.1l-5.2,11H88V9.1h1v4.5h1.9V14.5z"/>
		<path fill="#EFEFEB" d="M100.7,12.8c0,0.6-0.1,1.1-0.2,1.6c-0.2,0.5-0.4,0.9-0.7,1.3c-0.3,0.4-0.7,0.7-1.2,0.9
			c-0.5,0.2-1,0.3-1.6,0.3c-1.2,0-2.1-0.4-2.8-1.1c-0.7-0.7-1-1.7-1-2.9c0-0.5,0.1-0.9,0.2-1.4c0.1-0.5,0.3-1,0.6-1.6l3.6-7.4h1
			l-3.3,6.6c0.5-0.2,1-0.3,1.7-0.3c0.8,0,1.4,0.2,2,0.5c0.6,0.4,1,0.8,1.3,1.4C100.6,11.4,100.7,12,100.7,12.8z M99.7,12.9
			c0-0.9-0.2-1.7-0.7-2.3s-1.2-0.9-2-0.9c-0.8,0-1.5,0.3-2,0.9c-0.5,0.6-0.7,1.3-0.7,2.3c0,1,0.2,1.7,0.7,2.3c0.5,0.6,1.2,0.9,2,0.9
			c0.5,0,1-0.1,1.4-0.4c0.4-0.3,0.7-0.6,1-1.1C99.6,14,99.7,13.5,99.7,12.9z"/>
		<path fill="#EFEFEB" d="M111,16.8h-7.5v-0.9l5.7-7.5c0.5-0.7,0.8-1.4,0.8-2.2c0-0.6-0.1-1.1-0.3-1.5c-0.2-0.4-0.5-0.8-0.9-1
			c-0.4-0.2-0.9-0.4-1.5-0.4c-0.8,0-1.5,0.2-2,0.7s-0.8,1.2-0.8,2.1h-1c0-1.1,0.3-2,1-2.7c0.7-0.7,1.6-1,2.7-1
			c0.6,0,1.1,0.1,1.6,0.3s0.9,0.4,1.2,0.7c0.3,0.3,0.6,0.7,0.7,1.2s0.3,1,0.3,1.5c0,0.5-0.1,1-0.2,1.4c-0.1,0.4-0.4,0.9-0.8,1.3
			l-5.3,7h6.3V16.8z"/>
		<path fill="#EFEFEB" d="M121.3,12.1c0,0.9-0.1,1.6-0.2,2.2c-0.1,0.6-0.4,1.1-0.9,1.6c-0.7,0.7-1.6,1-2.7,1c-1.2,0-2.1-0.3-2.7-1
			c-0.6-0.6-0.9-1.3-1-2.3h1c0.1,0.8,0.4,1.4,0.8,1.8c0.4,0.4,1.1,0.6,1.9,0.6c0.4,0,0.8-0.1,1.1-0.2c0.4-0.1,0.6-0.3,0.8-0.5
			c0.4-0.4,0.6-0.8,0.7-1.3c0.1-0.5,0.2-1.1,0.2-1.9c0-1.1-0.2-2-0.5-2.7c-0.4-0.7-1.1-1.1-2.1-1.1c-0.6,0-1.2,0.1-1.7,0.4
			s-0.8,0.6-0.9,1.1h-0.9V2.6h6.8v0.9H115v5c0.6-0.7,1.5-1.1,2.7-1.1c1,0,1.8,0.3,2.4,0.9c0.5,0.5,0.8,1,0.9,1.6
			C121.2,10.6,121.3,11.3,121.3,12.1z"/>
		<path fill="#EFEFEB" d="M131.5,12.1c0,0.9-0.1,1.6-0.2,2.2c-0.1,0.6-0.4,1.1-0.9,1.6c-0.7,0.7-1.6,1-2.7,1c-1.2,0-2.1-0.3-2.7-1
			c-0.6-0.6-0.9-1.3-1-2.3h1c0.1,0.8,0.4,1.4,0.8,1.8c0.4,0.4,1.1,0.6,1.9,0.6c0.4,0,0.8-0.1,1.1-0.2c0.4-0.1,0.6-0.3,0.8-0.5
			c0.4-0.4,0.6-0.8,0.7-1.3c0.1-0.5,0.2-1.1,0.2-1.9c0-1.1-0.2-2-0.5-2.7c-0.4-0.7-1.1-1.1-2.1-1.1c-0.6,0-1.2,0.1-1.7,0.4
			s-0.8,0.6-0.9,1.1h-0.9V2.6h6.8v0.9h-5.9v5c0.6-0.7,1.5-1.1,2.7-1.1c1,0,1.8,0.3,2.4,0.9c0.5,0.5,0.8,1,0.9,1.6
			C131.4,10.6,131.5,11.3,131.5,12.1z"/>
		<path fill="#EFEFEB" d="M141.9,13c0,0.7-0.2,1.4-0.5,2c-0.4,0.6-0.8,1.1-1.5,1.4c-0.6,0.3-1.3,0.5-2.1,0.5c-0.8,0-1.4-0.2-2-0.5
			c-0.6-0.3-1.1-0.8-1.5-1.4c-0.4-0.6-0.5-1.3-0.5-2c0-0.8,0.2-1.5,0.6-2.1s0.9-1.1,1.6-1.5c-0.6-0.4-1.1-0.8-1.5-1.3
			s-0.5-1.2-0.5-1.9c0-0.5,0.1-1,0.3-1.5c0.2-0.5,0.4-0.8,0.8-1.2c0.3-0.3,0.7-0.6,1.2-0.8s1-0.3,1.5-0.3c0.7,0,1.4,0.2,1.9,0.5
			c0.6,0.3,1,0.8,1.3,1.3s0.5,1.2,0.5,1.9c0,0.7-0.2,1.4-0.5,1.9c-0.3,0.5-0.8,1-1.4,1.3c0.5,0.3,0.9,0.6,1.2,0.9
			c0.3,0.3,0.6,0.7,0.8,1.2C141.8,11.9,141.9,12.4,141.9,13z M140.9,13c0-0.4-0.1-0.8-0.2-1.2s-0.4-0.7-0.6-1
			c-0.3-0.3-0.6-0.5-1-0.7c-0.4-0.2-0.8-0.2-1.2-0.2c-0.6,0-1.1,0.1-1.5,0.4c-0.5,0.3-0.8,0.6-1.1,1.1s-0.4,1-0.4,1.6
			c0,0.9,0.3,1.6,0.9,2.2c0.6,0.6,1.3,0.9,2.2,0.9c0.6,0,1.1-0.1,1.5-0.4c0.5-0.3,0.8-0.6,1.1-1.1C140.8,14,140.9,13.5,140.9,13z
			 M140.6,6.2c0-0.5-0.1-1-0.4-1.4s-0.6-0.8-1-1s-0.9-0.4-1.4-0.4s-1,0.1-1.4,0.4c-0.4,0.2-0.7,0.6-1,1c-0.2,0.4-0.3,0.9-0.3,1.4
			c0,0.8,0.3,1.5,0.8,2c0.5,0.5,1.2,0.8,2,0.8c0.5,0,1-0.1,1.4-0.4c0.4-0.2,0.7-0.6,1-1C140.5,7.2,140.6,6.7,140.6,6.2z"/>
		<path fill="#EFEFEB" d="M151.9,16.8h-7.5v-0.9l5.7-7.5c0.5-0.7,0.8-1.4,0.8-2.2c0-0.6-0.1-1.1-0.3-1.5c-0.2-0.4-0.5-0.8-0.9-1
			c-0.4-0.2-0.9-0.4-1.5-0.4c-0.8,0-1.5,0.2-2,0.7s-0.8,1.2-0.8,2.1h-1c0-1.1,0.3-2,1-2.7c0.7-0.7,1.6-1,2.7-1
			c0.6,0,1.1,0.1,1.6,0.3s0.9,0.4,1.2,0.7c0.3,0.3,0.6,0.7,0.7,1.2s0.3,1,0.3,1.5c0,0.5-0.1,1-0.2,1.4c-0.1,0.4-0.4,0.9-0.8,1.3
			l-5.3,7h6.3V16.8z"/>
		<path fill="#FFFFFF" d="M168.5,15.1V1.7c0-0.5,0.2-0.8,0.5-1.2c0.3-0.3,0.7-0.5,1.2-0.5h6.7c0.5,0,0.8,0.2,1.2,0.5
			c0.3,0.3,0.5,0.7,0.5,1.2v13.4c0,0.5-0.2,0.8-0.5,1.2c-0.3,0.3-0.7,0.5-1.2,0.5h-6.7c-0.5,0-0.8-0.2-1.2-0.5
			C168.6,16,168.5,15.6,168.5,15.1z M169.7,13c0,0.1,0,0.2,0.1,0.3c0.1,0.1,0.2,0.1,0.3,0.1h6.7c0.1,0,0.2,0,0.3-0.1
			c0.1-0.1,0.1-0.2,0.1-0.3V3.8c0-0.1,0-0.2-0.1-0.3c-0.1-0.1-0.2-0.1-0.3-0.1h-6.7c-0.1,0-0.2,0-0.3,0.1c-0.1,0.1-0.1,0.2-0.1,0.3
			V13z M172.2,1.9c0,0.1,0.1,0.2,0.2,0.2h2.1c0.1,0,0.2-0.1,0.2-0.2c0-0.1-0.1-0.2-0.2-0.2h-2.1C172.3,1.7,172.2,1.7,172.2,1.9z
			 M172.8,14.4c-0.2,0.2-0.3,0.5-0.3,0.7s0.1,0.5,0.3,0.7s0.5,0.3,0.7,0.3c0.3,0,0.5-0.1,0.7-0.3c0.2-0.2,0.3-0.5,0.3-0.7
			s-0.1-0.5-0.3-0.7c-0.2-0.2-0.5-0.3-0.7-0.3C173.2,14.1,173,14.2,172.8,14.4z"/>
		<path fill="#EFEFEB" d="M193.6,12H190v3.6h-0.9V12h-3.6v-0.9h3.6V7.5h0.9v3.6h3.6V12z"/>
		<path fill="#EFEFEB" d="M203.5,6.5c0,0.9-0.3,1.9-0.8,3l-3.6,7.4h-1l3.3-6.6c-0.5,0.2-1,0.3-1.7,0.3c-0.8,0-1.4-0.2-2-0.5
			s-1-0.8-1.3-1.4c-0.3-0.6-0.4-1.3-0.4-2c0-0.6,0.1-1.1,0.3-1.6c0.2-0.5,0.4-0.9,0.7-1.3s0.7-0.7,1.2-0.9c0.5-0.2,1-0.3,1.6-0.3
			c0.8,0,1.5,0.2,2,0.5c0.6,0.3,1,0.8,1.3,1.4C203.3,5,203.5,5.7,203.5,6.5z M202.5,6.5c0-0.6-0.1-1.2-0.3-1.6s-0.5-0.8-1-1.1
			c-0.4-0.3-0.9-0.4-1.4-0.4c-0.8,0-1.5,0.3-2,0.9c-0.5,0.6-0.7,1.3-0.7,2.3c0,0.6,0.1,1.1,0.3,1.6c0.2,0.5,0.5,0.9,0.9,1.1
			c0.4,0.3,0.9,0.4,1.5,0.4c0.5,0,1-0.1,1.4-0.4c0.4-0.3,0.7-0.6,1-1.1S202.5,7.2,202.5,6.5z"/>
		<path fill="#EFEFEB" d="M213.8,12.8c0,0.6-0.1,1.1-0.2,1.6c-0.2,0.5-0.4,0.9-0.7,1.3c-0.3,0.4-0.7,0.7-1.2,0.9
			c-0.5,0.2-1,0.3-1.6,0.3c-1.2,0-2.1-0.4-2.8-1.1c-0.7-0.7-1-1.7-1-2.9c0-0.5,0.1-0.9,0.2-1.4c0.1-0.5,0.3-1,0.6-1.6l3.6-7.4h1
			l-3.3,6.6c0.5-0.2,1-0.3,1.7-0.3c0.8,0,1.4,0.2,2,0.5c0.6,0.4,1,0.8,1.3,1.4C213.7,11.4,213.8,12,213.8,12.8z M212.8,12.9
			c0-0.9-0.2-1.7-0.7-2.3s-1.2-0.9-2-0.9c-0.8,0-1.5,0.3-2,0.9c-0.5,0.6-0.7,1.3-0.7,2.3c0,1,0.2,1.7,0.7,2.3c0.5,0.6,1.2,0.9,2,0.9
			c0.5,0,1-0.1,1.4-0.4c0.4-0.3,0.7-0.6,1-1.1C212.7,14,212.8,13.5,212.8,12.9z"/>
		<path fill="#EFEFEB" d="M224.1,16.8h-7.5v-0.9l5.7-7.5c0.5-0.7,0.8-1.4,0.8-2.2c0-0.6-0.1-1.1-0.3-1.5c-0.2-0.4-0.5-0.8-0.9-1
			c-0.4-0.2-0.9-0.4-1.5-0.4c-0.8,0-1.5,0.2-2,0.7s-0.8,1.2-0.8,2.1h-1c0-1.1,0.3-2,1-2.7c0.7-0.7,1.6-1,2.7-1
			c0.6,0,1.1,0.1,1.6,0.3s0.9,0.4,1.2,0.7c0.3,0.3,0.6,0.7,0.7,1.2s0.3,1,0.3,1.5c0,0.5-0.1,1-0.2,1.4c-0.1,0.4-0.4,0.9-0.8,1.3
			l-5.3,7h6.3V16.8z"/>
		<path fill="#EFEFEB" d="M239.6,3.5l-5,13.3h-1l5-13.3h-5.4v2.2h-1V2.6h7.4V3.5z"/>
		<path fill="#EFEFEB" d="M249.8,3.5l-5,13.3h-1l5-13.3h-5.4v2.2h-1V2.6h7.4V3.5z"/>
		<path fill="#EFEFEB" d="M265,12.1c0,0.9-0.1,1.6-0.2,2.2c-0.1,0.6-0.4,1.1-0.9,1.6c-0.7,0.7-1.6,1-2.7,1c-1.2,0-2.1-0.3-2.7-1
			c-0.6-0.6-0.9-1.3-1-2.3h1c0.1,0.8,0.4,1.4,0.8,1.8c0.4,0.4,1.1,0.6,1.9,0.6c0.4,0,0.8-0.1,1.1-0.2c0.4-0.1,0.6-0.3,0.8-0.5
			c0.4-0.4,0.6-0.8,0.7-1.3c0.1-0.5,0.2-1.1,0.2-1.9c0-1.1-0.2-2-0.5-2.7c-0.4-0.7-1.1-1.1-2.1-1.1c-0.6,0-1.2,0.1-1.7,0.4
			s-0.8,0.6-0.9,1.1h-0.9V2.6h6.8v0.9h-5.9v5c0.6-0.7,1.5-1.1,2.7-1.1c1,0,1.8,0.3,2.4,0.9c0.5,0.5,0.8,1,0.9,1.6
			C264.9,10.6,265,11.3,265,12.1z"/>
		<path fill="#EFEFEB" d="M275.2,12.1c0,0.9-0.1,1.6-0.2,2.2c-0.1,0.6-0.4,1.1-0.9,1.6c-0.7,0.7-1.6,1-2.7,1c-1.2,0-2.1-0.3-2.7-1
			c-0.6-0.6-0.9-1.3-1-2.3h1c0.1,0.8,0.4,1.4,0.8,1.8c0.4,0.4,1.1,0.6,1.9,0.6c0.4,0,0.8-0.1,1.1-0.2c0.4-0.1,0.6-0.3,0.8-0.5
			c0.4-0.4,0.6-0.8,0.7-1.3c0.1-0.5,0.2-1.1,0.2-1.9c0-1.1-0.2-2-0.5-2.7c-0.4-0.7-1.1-1.1-2.1-1.1c-0.6,0-1.2,0.1-1.7,0.4
			s-0.8,0.6-0.9,1.1h-0.9V2.6h6.8v0.9H269v5c0.6-0.7,1.5-1.1,2.7-1.1c1,0,1.8,0.3,2.4,0.9c0.5,0.5,0.8,1,0.9,1.6
			C275.2,10.6,275.2,11.3,275.2,12.1z"/>
		<path fill="#EFEFEB" d="M285.6,13c0,0.7-0.2,1.4-0.5,2c-0.4,0.6-0.8,1.1-1.5,1.4c-0.6,0.3-1.3,0.5-2.1,0.5c-0.8,0-1.4-0.2-2-0.5
			c-0.6-0.3-1.1-0.8-1.5-1.4c-0.4-0.6-0.5-1.3-0.5-2c0-0.8,0.2-1.5,0.6-2.1s0.9-1.1,1.6-1.5c-0.6-0.4-1.1-0.8-1.5-1.3
			s-0.5-1.2-0.5-1.9c0-0.5,0.1-1,0.3-1.5c0.2-0.5,0.4-0.8,0.8-1.2c0.3-0.3,0.7-0.6,1.2-0.8s1-0.3,1.5-0.3c0.7,0,1.4,0.2,1.9,0.5
			c0.6,0.3,1,0.8,1.3,1.3s0.5,1.2,0.5,1.9c0,0.7-0.2,1.4-0.5,1.9c-0.3,0.5-0.8,1-1.4,1.3c0.5,0.3,0.9,0.6,1.2,0.9
			c0.3,0.3,0.6,0.7,0.8,1.2C285.6,11.9,285.6,12.4,285.6,13z M284.6,13c0-0.4-0.1-0.8-0.2-1.2s-0.4-0.7-0.6-1
			c-0.3-0.3-0.6-0.5-1-0.7c-0.4-0.2-0.8-0.2-1.2-0.2c-0.6,0-1.1,0.1-1.5,0.4c-0.5,0.3-0.8,0.6-1.1,1.1s-0.4,1-0.4,1.6
			c0,0.9,0.3,1.6,0.9,2.2c0.6,0.6,1.3,0.9,2.2,0.9c0.6,0,1.1-0.1,1.5-0.4c0.5-0.3,0.8-0.6,1.1-1.1C284.5,14,284.6,13.5,284.6,13z
			 M284.3,6.2c0-0.5-0.1-1-0.4-1.4s-0.6-0.8-1-1s-0.9-0.4-1.4-0.4s-1,0.1-1.4,0.4c-0.4,0.2-0.7,0.6-1,1c-0.2,0.4-0.3,0.9-0.3,1.4
			c0,0.8,0.3,1.5,0.8,2c0.5,0.5,1.2,0.8,2,0.8c0.5,0,1-0.1,1.4-0.4c0.4-0.2,0.7-0.6,1-1C284.2,7.2,284.3,6.7,284.3,6.2z"/>
		<path fill="#EFEFEB" d="M295.9,13c0,0.7-0.2,1.4-0.5,2c-0.4,0.6-0.8,1.1-1.5,1.4c-0.6,0.3-1.3,0.5-2.1,0.5c-0.8,0-1.4-0.2-2-0.5
			c-0.6-0.3-1.1-0.8-1.5-1.4c-0.4-0.6-0.5-1.3-0.5-2c0-0.8,0.2-1.5,0.6-2.1s0.9-1.1,1.6-1.5c-0.6-0.4-1.1-0.8-1.5-1.3
			s-0.5-1.2-0.5-1.9c0-0.5,0.1-1,0.3-1.5c0.2-0.5,0.4-0.8,0.8-1.2c0.3-0.3,0.7-0.6,1.2-0.8s1-0.3,1.5-0.3c0.7,0,1.4,0.2,1.9,0.5
			c0.6,0.3,1,0.8,1.3,1.3s0.5,1.2,0.5,1.9c0,0.7-0.2,1.4-0.5,1.9c-0.3,0.5-0.8,1-1.4,1.3c0.5,0.3,0.9,0.6,1.2,0.9
			c0.3,0.3,0.6,0.7,0.8,1.2C295.8,11.9,295.9,12.4,295.9,13z M294.9,13c0-0.4-0.1-0.8-0.2-1.2s-0.4-0.7-0.6-1
			c-0.3-0.3-0.6-0.5-1-0.7c-0.4-0.2-0.8-0.2-1.2-0.2c-0.6,0-1.1,0.1-1.5,0.4c-0.5,0.3-0.8,0.6-1.1,1.1s-0.4,1-0.4,1.6
			c0,0.9,0.3,1.6,0.9,2.2c0.6,0.6,1.3,0.9,2.2,0.9c0.6,0,1.1-0.1,1.5-0.4c0.5-0.3,0.8-0.6,1.1-1.1C294.7,14,294.9,13.5,294.9,13z
			 M294.6,6.2c0-0.5-0.1-1-0.4-1.4s-0.6-0.8-1-1s-0.9-0.4-1.4-0.4s-1,0.1-1.4,0.4c-0.4,0.2-0.7,0.6-1,1c-0.2,0.4-0.3,0.9-0.3,1.4
			c0,0.8,0.3,1.5,0.8,2c0.5,0.5,1.2,0.8,2,0.8c0.5,0,1-0.1,1.4-0.4c0.4-0.2,0.7-0.6,1-1C294.5,7.2,294.6,6.7,294.6,6.2z"/>
		<path fill="#EFEFEB" d="M311.4,14.5h-1.9v2.3h-1v-2.3h-5.6v-0.9l5.2-11h1.1l-5.2,11h4.5V9.1h1v4.5h1.9V14.5z"/>
		<path fill="#EFEFEB" d="M321.1,13.1c0,0.7-0.2,1.4-0.5,2c-0.3,0.6-0.8,1-1.3,1.3c-0.6,0.3-1.2,0.5-1.9,0.5s-1.4-0.2-1.9-0.5
			s-1-0.8-1.3-1.3c-0.3-0.6-0.5-1.2-0.5-2V6.3c0-0.5,0.1-1.1,0.3-1.5s0.4-0.9,0.8-1.2s0.7-0.6,1.2-0.8c0.5-0.2,1-0.3,1.5-0.3
			c0.6,0,1.1,0.1,1.5,0.3c0.5,0.2,0.9,0.4,1.2,0.8c0.3,0.3,0.6,0.7,0.8,1.2c0.2,0.5,0.3,1,0.3,1.5V13.1z M320.1,13V6.4
			c0-0.9-0.2-1.6-0.7-2.1s-1.1-0.8-2-0.8c-0.8,0-1.5,0.3-2,0.8c-0.5,0.6-0.7,1.3-0.7,2.1V13c0,0.9,0.2,1.6,0.7,2.1
			c0.5,0.6,1.1,0.8,2,0.8c0.9,0,1.5-0.3,2-0.8S320.1,13.9,320.1,13z"/>
		<path fill="#EFEFEB" d="M331.4,13.1c0,0.7-0.2,1.4-0.5,2c-0.3,0.6-0.8,1-1.3,1.3c-0.6,0.3-1.2,0.5-1.9,0.5s-1.4-0.2-1.9-0.5
			s-1-0.8-1.3-1.3c-0.3-0.6-0.5-1.2-0.5-2V6.3c0-0.5,0.1-1.1,0.3-1.5s0.4-0.9,0.8-1.2s0.7-0.6,1.2-0.8c0.5-0.2,1-0.3,1.5-0.3
			c0.6,0,1.1,0.1,1.5,0.3c0.5,0.2,0.9,0.4,1.2,0.8c0.3,0.3,0.6,0.7,0.8,1.2c0.2,0.5,0.3,1,0.3,1.5V13.1z M330.4,13V6.4
			c0-0.9-0.2-1.6-0.7-2.1s-1.1-0.8-2-0.8c-0.8,0-1.5,0.3-2,0.8c-0.5,0.6-0.7,1.3-0.7,2.1V13c0,0.9,0.2,1.6,0.7,2.1
			c0.5,0.6,1.1,0.8,2,0.8c0.9,0,1.5-0.3,2-0.8S330.4,13.9,330.4,13z"/>
	</g>
</g>
</svg>
