<!-- Generator: Adobe Illustrator 18.0.0, SVG Export Plug-In  -->
<svg version="1.1"
	 xmlns="http://www.w3.org/2000/svg" xmlns:xlink="http://www.w3.org/1999/xlink" xmlns:a="http://ns.adobe.com/AdobeSVGViewerExtensions/3.0/"
	 x="0px" y="0px" width="557.4px" height="58.9px" viewBox="0 0 557.4 58.9" enable-background="new 0 0 557.4 58.9"
	 xml:space="preserve">
<defs>
</defs>
<g>
	<path fill="#FFFFFF" d="M27.7,6.9c1.5-0.1,2.7-0.7,3.7-2.1c0.9-1.3,1.3-2.9,1.2-4.9H22.1c0.1,2.1,0.6,3.7,1.6,5
		C24.7,6.3,26.1,7.1,27.7,6.9z"/>
	<path fill="#FFFFFF" d="M38.6,6.9c1.5-0.1,2.8-0.7,3.7-2.1c0.9-1.3,1.3-2.9,1.3-4.9H33.1c0,2.1,0.6,3.7,1.5,5
		C35.6,6.3,37,7.1,38.6,6.9z"/>
	<path fill="#FFFFFF" d="M16.6,6.9c1.6,0,2.8-0.7,3.7-2.1c1-1.3,1.3-2.9,1.3-4.9H11.2c0.1,2.1,0.6,3.7,1.6,5
		C13.7,6.3,15,6.9,16.6,6.9z"/>
	<polygon fill="#FFFFFF" points="62.9,34.4 52.6,34.4 50.8,34.4 48.3,34.4 48.3,12.7 36.2,12.7 36.2,34.4 12.4,34.4 12.4,28.9 
		29.9,28.9 29.9,12.7 0,12.7 0,46.1 52.6,46.1 52.6,45.9 75.1,45.9 75.1,12.7 62.9,12.7 	"/>
	<path fill="#FFFFFF" d="M69.8,49.5c-1.6,0-2.9,0.6-4,1.9c-0.9,1.3-1.5,2.9-1.5,5h10.3c0.1-1.9-0.3-3.5-1.2-4.9
		C72.6,50.2,71.3,49.5,69.8,49.5z"/>
	<path fill="#FFFFFF" d="M58.3,49.5c-1.6-0.1-2.8,0.6-3.8,1.9c-1,1.3-1.5,2.9-1.6,5h10.5c0-1.9-0.3-3.5-1.3-4.9
		C61.1,50.2,59.9,49.5,58.3,49.5z"/>
	<path fill="#FFFFFF" d="M163.4,0v34.4h-4.3V12.7h-43.3c-1.5,0-2.6,0.7-3.8,2.2c-1,1.5-1.6,3.1-1.6,4.9v11.3
		c1.2-1.5,2.2-2.2,3.2-2.2h32.4v5.6h-16.9H109h-2.8h-0.9V12.7H82.2v16.2h10.3v5.6H78.8v11.6h14.4h13h2.8h20.2h47L175.9,0H163.4z"/>
	<polygon fill="#FFFFFF" points="181.2,0 181.2,46.1 193.8,46.1 193.6,0 	"/>
	<path fill="#FFFFFF" d="M412.4,6.9c1.6,0,2.8-0.7,3.7-2.1c1-1.3,1.3-2.9,1.3-4.9h-10.5c0.1,2.1,0.6,3.7,1.6,5
		C409.4,6.3,410.8,6.9,412.4,6.9z"/>
	<path fill="#FFFFFF" d="M489.4,14.9c-1.8-1.3-3.7-2.1-5.7-2.1h-41.8c-1.9,0-3.2-1-4-2.9c-0.3-0.7-0.4-1.6-0.4-2.5
		c0-1.2,0.3-2.4,0.9-3.7c0.3-0.4,0.9-1.2,1.6-1.9c0.6-0.6,0.9-1,0.9-1.2c0-0.3-0.9-0.3-2.6-0.3c-3.4,0-6.2,1.2-8.2,3.8
		c-2.1,2.5-3.2,5.9-3.2,10c-0.1,4,0.7,7.2,2.5,9.9c1.9,2.7,4.4,4.1,7.5,4.1h45.9v6.2h-61.8v0.1h-2.2V12.7h-12.4v36.8
		c0,1-0.3,2.1-0.9,2.9c-1.2,2.4-2.7,3.5-4.6,3.7c-2.1,0.1-2.9,0.4-2.9,1c0,0.1,0.3,0.4,0.7,0.7c0.6,0.4,1.3,0.6,2.2,0.7
		c3.7,0.4,7.1,0.4,10.3,0c2.1-0.3,3.8-1.3,5.3-2.9c1.5-1.9,2.2-4.1,2.2-6.6v-2.9h2.2h2.4h72.1V26.5c0-2.2-0.6-4.3-1.6-6.5
		C492.6,18,491.2,16.2,489.4,14.9z"/>
	<path fill="#FFFFFF" d="M555.5,15.5c-1.3-1.9-2.9-2.9-4.9-2.9h-8.8h-15.6v21.9h-2.4h-2.1h-2.5V12.7h-12.5v36.8c0,1-0.3,2.1-0.7,2.9
		c-1.2,2.4-2.8,3.5-4.7,3.7c-1.9,0.1-2.9,0.4-2.9,1c0,0.1,0.3,0.4,0.7,0.7c0.6,0.4,1.3,0.6,2.2,0.7c3.7,0.4,7.1,0.4,10.3,0
		c2.1-0.3,4-1.3,5.3-2.9c1.5-1.9,2.4-4.1,2.4-6.6v-2.9h2.5h2.1h18h15.6V21.8C557.4,19.4,556.8,17.2,555.5,15.5z M544.5,34.4h-2.6
		h-2.5v-5.9h2.5h2.6V34.4z"/>
	<path fill="#FFFFFF" d="M246.3,6.9c1.6-0.1,2.8-0.7,3.7-2.1c1-1.3,1.5-2.9,1.3-4.9h-10.5c0.1,2.1,0.6,3.7,1.6,5
		C243.5,6.3,244.8,7.1,246.3,6.9z"/>
	<path fill="#FFFFFF" d="M235,6.9c1.5,0,2.6-0.7,3.7-2.1c0.9-1.3,1.3-2.9,1.2-4.9h-10.3c0,2.1,0.6,3.7,1.5,5
		C232,6.3,233.4,6.9,235,6.9z"/>
	<polygon fill="#FFFFFF" points="247.3,34.3 223.5,34.3 223.5,28.9 241,28.9 241,12.7 211.1,12.7 211.1,46.1 259.4,46.1 259.4,12.7 
		247.3,12.7 	"/>
	<path fill="#FFFFFF" d="M305.8,6.9c1.5,0,2.8-0.7,3.7-2.1c0.9-1.3,1.3-2.9,1.3-4.9h-10.5c0,2.1,0.6,3.7,1.5,5
		C302.9,6.3,304.2,6.9,305.8,6.9z"/>
	<path fill="#FFFFFF" d="M351.1,0v34.4h-3.2h-2.4H343V0h-12.4v34.4h-3.2h-2.4h-26.9V28H319c0.9,0,1.6,0.4,2.2,1.3
		c1,1.2,1.6,1.8,1.9,2.1V19.4c0-4.6-1.8-6.8-5.4-6.8h-25.6c-1.8,0-3.4,0.6-4.9,1.8c-1.6,1.3-2.4,3.1-2.4,5.3v8.4
		c0,0.9,0.1,1.8,0.6,2.6c0.3,0.6,0.7,1.3,1.3,1.9c0.6,0.6,1.2,1.2,1.6,1.8h-6.2H280h-3.4V0h-12.4v46.1H280h2.2h42.8h2.4h18.1h2.2
		h15.9L363.5,0H351.1z"/>
	<polygon fill="#FFFFFF" points="368.7,0 368.7,46.1 381.2,46.1 381,0 	"/>
</g>
</svg>
